<svg width="20" height="19" viewBox="0 0 20 19" fill="none" xmlns="http://www.w3.org/2000/svg">
<rect width="20" height="19" fill="#E4E4E4"/>
<g clip-path="url(#clip0_1553_25715)">
<rect width="375" height="812" transform="translate(-322 -529)" fill="white"/>
<rect x="-298" y="-13" width="327" height="69" rx="10" fill="#098AFD"/>
<g filter="url(#filter0_d_1553_25715)">
<rect x="-295" y="-13" width="324" height="69" rx="10" fill="white"/>
</g>
<path d="M16.909 13.659L16.9097 13.6598C16.9278 13.6823 16.9596 13.722 16.9932 13.7641C17.0327 13.8135 17.0749 13.8662 17.1005 13.898C17.1785 13.9952 17.2296 14.1156 17.2451 14.2456C17.2606 14.3759 17.2393 14.5072 17.185 14.6236L17.1844 14.6247C17.0676 14.8762 16.8256 15.0345 16.5302 15.0345H4.47432C4.17407 15.0345 3.93089 14.8741 3.81554 14.6239L3.81454 14.6218C3.7605 14.5055 3.7394 14.3743 3.75502 14.2443C3.77062 14.1143 3.82187 13.9939 3.90001 13.8969L3.90003 13.8969L3.9043 13.8915C3.95876 13.8226 4.01231 13.7562 4.06745 13.6877L4.09091 13.6586L4.09107 13.6584L4.11208 13.6323C4.5315 13.1112 4.94553 12.5969 5.22555 11.8017C5.50438 11.0099 5.63491 9.99226 5.63491 8.4471C5.63491 7.16762 5.88389 6.17646 6.33843 5.41609C6.78817 4.66373 7.4726 4.08087 8.44746 3.66774L8.48935 3.64998L8.52878 3.6273C8.61418 3.57817 8.68997 3.5153 8.75348 3.44193L8.8609 3.31784L8.90667 3.16022C9.17327 2.24213 9.85509 1.75 10.5001 1.75C11.1451 1.75 11.8272 2.24207 12.0939 3.16123L12.1375 3.31162L12.2376 3.432C12.3033 3.51087 12.3829 3.57819 12.4735 3.63003L12.5124 3.65232L12.5537 3.66981C13.3928 4.02519 13.9937 4.48902 14.4317 5.07861L14.4321 5.07916C15.0278 5.87947 15.3657 6.99353 15.3657 8.4483C15.3657 9.99301 15.4964 11.0104 15.7754 11.8021C16.055 12.5959 16.4682 13.1102 16.8864 13.6308L16.909 13.659ZM3.13443 14.9379C3.37525 15.4603 3.88849 15.7845 4.47432 15.7845H16.5302C17.1133 15.7845 17.623 15.4607 17.8646 14.9408L3.13443 14.9379ZM11.7082 17.9053C11.3415 18.1311 10.9241 18.2495 10.5002 18.25C10.0762 18.2495 9.65892 18.131 9.29221 17.9052C9.24908 17.8786 9.20683 17.8507 9.16551 17.8214H11.8351C11.7937 17.8507 11.7514 17.8787 11.7082 17.9053Z" stroke="#FD096F" stroke-width="1.5"/>
<line x1="1.12078" y1="16.591" x2="18.591" y2="1.87923" stroke="#FD096F" stroke-width="2" stroke-linecap="round"/>
</g>
<defs>
<filter id="filter0_d_1553_25715" x="-303" y="-17" width="340" height="85" filterUnits="userSpaceOnUse" color-interpolation-filters="sRGB">
<feFlood flood-opacity="0" result="BackgroundImageFix"/>
<feColorMatrix in="SourceAlpha" type="matrix" values="0 0 0 0 0 0 0 0 0 0 0 0 0 0 0 0 0 0 127 0" result="hardAlpha"/>
<feOffset dy="4"/>
<feGaussianBlur stdDeviation="4"/>
<feComposite in2="hardAlpha" operator="out"/>
<feColorMatrix type="matrix" values="0 0 0 0 0 0 0 0 0 0 0 0 0 0 0 0 0 0 0.08 0"/>
<feBlend mode="normal" in2="BackgroundImageFix" result="effect1_dropShadow_1553_25715"/>
<feBlend mode="normal" in="SourceGraphic" in2="effect1_dropShadow_1553_25715" result="shape"/>
</filter>
<clipPath id="clip0_1553_25715">
<rect width="375" height="812" fill="white" transform="translate(-322 -529)"/>
</clipPath>
</defs>
</svg>
