<svg width="20" height="20" viewBox="0 0 20 20" fill="none" xmlns="http://www.w3.org/2000/svg">
<rect width="20" height="20" fill="#E4E4E4"/>
<g clip-path="url(#clip0_1553_25715)">
<rect width="375" height="812" transform="translate(-34 -362)" fill="white"/>
<g clip-path="url(#clip1_1553_25715)">
<g clip-path="url(#clip2_1553_25715)">
<g clip-path="url(#clip3_1553_25715)">
<rect x="-27" y="-9" width="375" height="74" fill="white"/>
<path fill-rule="evenodd" clip-rule="evenodd" d="M15 54C29.3594 54 41 42.3594 41 28C41 13.6406 29.3594 2 15 2C0.640596 2 -11 13.6406 -11 28C-11 42.3594 0.640596 54 15 54Z" fill="#00172D"/>
<path d="M18.2769 18.7967L18.2771 18.7977C18.4869 19.7154 18.2901 21.022 17.7479 22.1043C17.1999 23.1984 16.3967 23.8883 15.5053 23.8883C14.6041 23.8883 13.7972 23.1965 13.2478 22.1037C12.7043 21.0225 12.5074 19.7171 12.7165 18.7995C13.0475 17.4058 14.2631 16.5 15.5053 16.5C16.7338 16.5 17.9624 17.4082 18.2769 18.7967ZM5.84882 20.2831L5.84909 20.2819C6.11381 19.1359 7.12965 18.3787 8.13888 18.3787C9.14812 18.3787 10.164 19.1359 10.4287 20.2819L10.4289 20.2831C10.6043 21.0338 10.4419 22.1205 9.98513 23.0259C9.52278 23.9424 8.85704 24.498 8.13888 24.498C7.42073 24.498 6.75499 23.9424 6.29263 23.0259C5.83582 22.1205 5.67349 21.0338 5.84882 20.2831ZM20.5817 20.2831L20.582 20.2819C20.8471 19.1342 21.8642 18.3787 22.8551 18.3787C23.8644 18.3787 24.8802 19.1359 25.1449 20.2819L25.1452 20.2831C25.3205 21.0338 25.1582 22.1205 24.7014 23.0259C24.239 23.9424 23.5733 24.498 22.8551 24.498C22.1469 24.498 21.485 23.9446 21.0238 23.0267C20.5687 22.1208 20.4063 21.0339 20.5817 20.2831ZM20.7155 31.7689L20.7154 31.7689L20.7125 31.7788L18.6359 38.8583C18.4954 39.2875 18.1168 39.6973 17.5402 40.0077C16.9665 40.3165 16.2421 40.5 15.5053 40.5C14.7506 40.5 14.0223 40.3159 13.4496 40.0077C12.8745 39.6981 12.4987 39.2885 12.3579 38.8579L10.2646 31.7778L10.2646 31.7778L10.2624 31.7706C9.65919 29.8374 9.96509 28.3796 10.8413 27.402C11.7359 26.4039 13.3227 25.7947 15.5053 25.7947C17.6793 25.7947 19.2616 26.4037 20.152 27.4013C21.0241 28.3782 21.3266 29.8356 20.7155 31.7689ZM8.13888 26.2891C8.24425 26.2891 8.34943 26.291 8.45395 26.2948C7.60115 27.5327 6.88588 29.5592 7.79349 32.4934C7.79375 32.4942 7.79401 32.4951 7.79428 32.4959L9.53498 38.3338C9.11741 38.5076 8.63114 38.6048 8.13888 38.6048C7.50775 38.6048 6.9044 38.4532 6.4325 38.199C5.95959 37.9444 5.65631 37.6094 5.53997 37.2585L3.76282 31.2504L3.76287 31.2504L3.76082 31.2438C3.2571 29.6232 3.51751 28.4212 4.23713 27.621C4.97551 26.7999 6.29623 26.2891 8.13888 26.2891ZM27.2338 31.2417L27.2338 31.2417L27.2312 31.2504L25.454 37.2585C25.3377 37.6094 25.0344 37.9444 24.5615 38.199C24.0896 38.4532 23.4862 38.6048 22.8551 38.6048C22.3627 38.6048 21.8763 38.5075 21.4586 38.3336L23.1838 32.5267C24.1061 29.5654 23.3956 27.5366 22.5257 26.2951C22.6334 26.2911 22.7431 26.2891 22.8551 26.2891C24.6979 26.2891 26.0231 26.8001 26.7635 27.6214C27.4845 28.4213 27.745 29.6223 27.2338 31.2417Z" stroke="white"/>
</g>
</g>
</g>
<g filter="url(#filter0_b_1553_25715)">
<path fill-rule="evenodd" clip-rule="evenodd" d="M-34 -361H341V451H-34V-361Z" fill="#F7F7F7" fill-opacity="0.8"/>
</g>
<rect x="-11" y="-165" width="327" height="197" rx="10" fill="black"/>
<g filter="url(#filter1_d_1553_25715)">
<rect x="-8" y="-165" width="324" height="197" rx="10" fill="white"/>
</g>
<path d="M3.19435 12.7071L3.9254 12.5395L3.19435 12.7071ZM3.19435 7.79436L3.9254 7.96191L3.19435 7.79436ZM16.8056 7.79436L16.0745 7.96192L16.8056 7.79436ZM16.8056 12.7071L16.0745 12.5395L16.8056 12.7071ZM12.4001 17.2158L12.5752 17.945L12.4001 17.2158ZM7.59984 17.2158L7.77491 16.4865L7.59984 17.2158ZM7.59984 3.28566L7.77491 4.01494L7.59984 3.28566ZM12.4001 3.28566L12.5752 2.55638L12.4001 3.28566ZM7.47503 2.5C7.47503 2.08579 7.13924 1.75 6.72503 1.75C6.31081 1.75 5.97503 2.08579 5.97503 2.5H7.47503ZM5.97503 4.59479C5.97503 5.009 6.31081 5.34479 6.72503 5.34479C7.13924 5.34479 7.47503 5.009 7.47503 4.59479H5.97503ZM14.0249 2.5C14.0249 2.08579 13.6891 1.75 13.2749 1.75C12.8607 1.75 12.5249 2.08579 12.5249 2.5H14.0249ZM12.5249 4.59479C12.5249 5.009 12.8607 5.34479 13.2749 5.34479C13.6891 5.34479 14.0249 5.009 14.0249 4.59479H12.5249ZM3.9254 12.5395C3.58037 11.0341 3.58037 9.46728 3.9254 7.96191L2.46331 7.6268C2.06773 9.35272 2.06773 11.1487 2.46331 12.8746L3.9254 12.5395ZM16.0745 7.96192C16.4195 9.46728 16.4195 11.0341 16.0745 12.5395L17.5366 12.8746C17.9322 11.1487 17.9322 9.35272 17.5366 7.62681L16.0745 7.96192ZM12.225 16.4865C10.7614 16.8378 9.23849 16.8378 7.77491 16.4865L7.42477 17.945C9.1185 18.3517 10.8814 18.3517 12.5752 17.945L12.225 16.4865ZM7.77491 4.01494C9.23849 3.66359 10.7614 3.66359 12.225 4.01494L12.5752 2.55638C10.8814 2.14978 9.1185 2.14978 7.42476 2.55638L7.77491 4.01494ZM7.77491 16.4865C5.87324 16.03 4.37622 14.5065 3.9254 12.5395L2.46331 12.8746C3.03799 15.382 4.95456 17.352 7.42477 17.945L7.77491 16.4865ZM12.5752 17.945C15.0454 17.352 16.9619 15.382 17.5366 12.8746L16.0745 12.5395C15.6237 14.5065 14.1267 16.03 12.225 16.4865L12.5752 17.945ZM12.225 4.01494C14.1267 4.47146 15.6237 5.99497 16.0745 7.96192L17.5366 7.62681C16.9619 5.11945 15.0454 3.14939 12.5752 2.55638L12.225 4.01494ZM7.42476 2.55638C4.95456 3.14939 3.03799 5.11945 2.46331 7.6268L3.9254 7.96191C4.37622 5.99497 5.87324 4.47146 7.77491 4.01494L7.42476 2.55638ZM3.45009 7.64905H16.5498V6.14905H3.45009V7.64905ZM5.97503 2.5V4.59479H7.47503V2.5H5.97503ZM12.5249 2.5V4.59479H14.0249V2.5H12.5249Z" fill="#00172D"/>
<path d="M11.2018 11.6033C11.5393 11.3633 11.7493 11.0033 11.7493 10.5158C11.7493 9.50333 10.9693 8.97833 10.0468 8.97833C9.12431 8.97833 8.33681 9.50333 8.33681 10.5158C8.33681 11.0033 8.55431 11.3633 8.88431 11.6033C8.42681 11.8808 8.16431 12.3383 8.16431 12.8708C8.16431 13.8383 8.87681 14.4383 10.0468 14.4383C11.2093 14.4383 11.9293 13.8383 11.9293 12.8708C11.9293 12.3383 11.6668 11.8808 11.2018 11.6033ZM10.0468 9.95333C10.4368 9.95333 10.7218 10.1783 10.7218 10.5683C10.7218 10.9508 10.4368 11.1908 10.0468 11.1908C9.65681 11.1908 9.37181 10.9508 9.37181 10.5683C9.37181 10.1783 9.65681 9.95333 10.0468 9.95333ZM10.0468 13.4633C9.55181 13.4633 9.19181 13.2083 9.19181 12.7358C9.19181 12.2708 9.55181 12.0158 10.0468 12.0158C10.5418 12.0158 10.9018 12.2708 10.9018 12.7358C10.9018 13.2083 10.5418 13.4633 10.0468 13.4633Z" fill="#00172D"/>
</g>
<defs>
<filter id="filter0_b_1553_25715" x="-44" y="-371" width="395" height="832" filterUnits="userSpaceOnUse" color-interpolation-filters="sRGB">
<feFlood flood-opacity="0" result="BackgroundImageFix"/>
<feGaussianBlur in="BackgroundImageFix" stdDeviation="5"/>
<feComposite in2="SourceAlpha" operator="in" result="effect1_backgroundBlur_1553_25715"/>
<feBlend mode="normal" in="SourceGraphic" in2="effect1_backgroundBlur_1553_25715" result="shape"/>
</filter>
<filter id="filter1_d_1553_25715" x="-16" y="-169" width="340" height="213" filterUnits="userSpaceOnUse" color-interpolation-filters="sRGB">
<feFlood flood-opacity="0" result="BackgroundImageFix"/>
<feColorMatrix in="SourceAlpha" type="matrix" values="0 0 0 0 0 0 0 0 0 0 0 0 0 0 0 0 0 0 127 0" result="hardAlpha"/>
<feOffset dy="4"/>
<feGaussianBlur stdDeviation="4"/>
<feComposite in2="hardAlpha" operator="out"/>
<feColorMatrix type="matrix" values="0 0 0 0 0 0 0 0 0 0 0 0 0 0 0 0 0 0 0.08 0"/>
<feBlend mode="normal" in2="BackgroundImageFix" result="effect1_dropShadow_1553_25715"/>
<feBlend mode="normal" in="SourceGraphic" in2="effect1_dropShadow_1553_25715" result="shape"/>
</filter>
<clipPath id="clip0_1553_25715">
<rect width="375" height="812" fill="white" transform="translate(-34 -362)"/>
</clipPath>
<clipPath id="clip1_1553_25715">
<rect width="375" height="607" fill="white" transform="translate(-34 -157)"/>
</clipPath>
<clipPath id="clip2_1553_25715">
<rect width="375" height="759" fill="white" transform="translate(-27 -157)"/>
</clipPath>
<clipPath id="clip3_1553_25715">
<rect width="375" height="74" fill="white" transform="translate(-27 -9)"/>
</clipPath>
</defs>
</svg>
