<svg width="20" height="13" viewBox="0 0 20 13" fill="none" xmlns="http://www.w3.org/2000/svg">
<path d="M0.9375 0C0.68886 0 0.450403 0.0978312 0.274587 0.271972C0.0987719 0.446113 0 0.682299 0 0.928571C0 1.17484 0.0987719 1.41103 0.274587 1.58517C0.450403 1.75931 0.68886 1.85714 0.9375 1.85714H19.0625C19.3111 1.85714 19.5496 1.75931 19.7254 1.58517C19.9012 1.41103 20 1.17484 20 0.928571C20 0.682299 19.9012 0.446113 19.7254 0.271972C19.5496 0.0978312 19.3111 0 19.0625 0H0.9375ZM0.9375 3.71429C0.68886 3.71429 0.450403 3.81212 0.274587 3.98626C0.0987719 4.1604 0 4.39658 0 4.64286C0 4.88913 0.0987719 5.12532 0.274587 5.29946C0.450403 5.4736 0.68886 5.57143 0.9375 5.57143H19.0625C19.3111 5.57143 19.5496 5.4736 19.7254 5.29946C19.9012 5.12532 20 4.88913 20 4.64286C20 4.39658 19.9012 4.1604 19.7254 3.98626C19.5496 3.81212 19.3111 3.71429 19.0625 3.71429H0.9375ZM0 8.35714C0 8.11087 0.0987719 7.87469 0.274587 7.70054C0.450403 7.5264 0.68886 7.42857 0.9375 7.42857H19.0625C19.3111 7.42857 19.5496 7.5264 19.7254 7.70054C19.9012 7.87469 20 8.11087 20 8.35714C20 8.60342 19.9012 8.8396 19.7254 9.01374C19.5496 9.18788 19.3111 9.28572 19.0625 9.28572H0.9375C0.68886 9.28572 0.450403 9.18788 0.274587 9.01374C0.0987719 8.8396 0 8.60342 0 8.35714ZM0.9375 11.1429C0.68886 11.1429 0.450403 11.2407 0.274587 11.4148C0.0987719 11.589 0 11.8252 0 12.0714C0 12.3177 0.0987719 12.5539 0.274587 12.728C0.450403 12.9022 0.68886 13 0.9375 13H12.8125C13.0611 13 13.2996 12.9022 13.4754 12.728C13.6512 12.5539 13.75 12.3177 13.75 12.0714C13.75 11.8252 13.6512 11.589 13.4754 11.4148C13.2996 11.2407 13.0611 11.1429 12.8125 11.1429H0.9375Z" fill="black"/>
</svg>
