<svg width="98" height="98" viewBox="0 0 98 98" fill="none" xmlns="http://www.w3.org/2000/svg">
<rect width="98" height="98" fill="#E4E4E4"/>
<g clip-path="url(#clip0_1553_25715)">
<rect width="375" height="812" transform="translate(-138 -336)" fill="white"/>
<circle cx="49" cy="49" r="49" fill="#00172D"/>
<path d="M39.75 61.95L28.9583 51.1583C28.6762 50.8727 28.3401 50.6459 27.9696 50.4911C27.5991 50.3364 27.2015 50.2566 26.8 50.2566C26.3985 50.2566 26.001 50.3364 25.6305 50.4911C25.26 50.6459 24.9239 50.8727 24.6417 51.1583C24.356 51.4405 24.1293 51.7766 23.9745 52.1471C23.8197 52.5176 23.74 52.9151 23.74 53.3167C23.74 53.7182 23.8197 54.1157 23.9745 54.4862C24.1293 54.8567 24.356 55.1928 24.6417 55.475L37.5608 68.3942C38.7633 69.5967 40.7058 69.5967 41.9083 68.3942L74.5917 35.7417C74.8773 35.4595 75.1041 35.1234 75.2589 34.7529C75.4137 34.3824 75.4934 33.9849 75.4934 33.5833C75.4934 33.1818 75.4137 32.7843 75.2589 32.4138C75.1041 32.0433 74.8773 31.7072 74.5917 31.425C74.3095 31.1394 73.9734 30.9126 73.6029 30.7578C73.2324 30.603 72.8349 30.5233 72.4333 30.5233C72.0318 30.5233 71.6343 30.603 71.2638 30.7578C70.8933 30.9126 70.5572 31.1394 70.275 31.425L39.75 61.95Z" fill="white"/>
</g>
<defs>
<clipPath id="clip0_1553_25715">
<rect width="375" height="812" fill="white" transform="translate(-138 -336)"/>
</clipPath>
</defs>
</svg>
