<svg width="201" height="208" viewBox="0 0 201 208" fill="none" xmlns="http://www.w3.org/2000/svg">
<path d="M115.634 1.16376C60.7686 -7.23239 9.51649 30.6462 1.15854 85.7554C-5.4133 129.106 16.5042 170.203 52.8606 189.858C54.0468 200.069 62.6843 207.993 73.1692 207.993C84.4654 207.993 93.621 198.795 93.621 187.447C93.621 176.1 84.4654 166.902 73.1692 166.902C68.5199 166.902 64.2386 168.464 60.8027 171.087C31.8021 154.822 14.4249 121.682 19.7219 86.7552C26.5392 41.7885 68.3562 10.8817 113.118 17.7369C157.88 24.5853 188.647 66.5935 181.823 111.56C176.485 146.761 149.7 173.319 116.847 179.921C117.665 179.846 118.497 179.853 119.342 179.983C124.892 180.832 128.709 186.044 127.864 191.618C127.251 195.652 124.367 198.761 120.72 199.857C160.751 191.591 193.323 159.116 199.834 116.155C208.199 61.0463 170.499 9.55992 115.634 1.16376Z" fill="white"/>
<path d="M127.864 191.625C128.71 186.051 124.899 180.839 119.343 179.99C118.497 179.86 117.666 179.853 116.848 179.928C112.314 180.36 108.476 183.818 107.76 188.544C106.915 194.118 110.726 199.33 116.282 200.179C117.816 200.412 119.322 200.282 120.72 199.857C124.367 198.762 127.251 195.652 127.864 191.625Z" fill="#098AFD"/>
</svg>
