<svg width="48" height="48" viewBox="0 0 48 48" fill="none" xmlns="http://www.w3.org/2000/svg">
<rect width="48" height="48" fill="#E4E4E4"/>
<g clip-path="url(#clip0_1553_25715)">
<rect width="375" height="812" transform="translate(-163 -331)" fill="white"/>
<g filter="url(#filter0_f_1553_25715)">
<circle cx="-315" cy="105" r="156" fill="#0979FD" fill-opacity="0.5"/>
</g>
<g filter="url(#filter1_f_1553_25715)">
<circle cx="201" cy="-195" r="103" fill="#095DDC" fill-opacity="0.5"/>
</g>
<g filter="url(#filter2_f_1553_25715)">
<circle cx="-119" cy="-195" r="103" fill="#DC0909" fill-opacity="0.5"/>
</g>
<path fill-rule="evenodd" clip-rule="evenodd" d="M-163 -331H212V481H-163V-331Z" fill="url(#paint0_linear_1553_25715)" fill-opacity="0.8"/>
<rect width="48" height="48" rx="10" fill="#EFF7FF"/>
<path d="M30.1201 25.4119V30.1173H34.8241V34.8213H39.5295V39.5295H34.8241V34.8241H30.1201V39.5295H25.4119V34.8241H30.1173V30.1187H25.4119V25.4119H30.1187H30.1201ZM19.0589 25.4119C19.995 25.4119 20.8927 25.7837 21.5546 26.4456C22.2165 27.1075 22.5883 28.0052 22.5883 28.9413V36.0001C22.5883 36.9362 22.2165 37.8339 21.5546 38.4958C20.8927 39.1577 19.995 39.5295 19.0589 39.5295H12.0001C11.0641 39.5295 10.1663 39.1577 9.50444 38.4958C8.84255 37.8339 8.4707 36.9362 8.4707 36.0001V28.9413C8.4707 28.0052 8.84255 27.1075 9.50444 26.4456C10.1663 25.7837 11.0641 25.4119 12.0001 25.4119H19.0589ZM19.0589 28.2354H12.0001C11.8129 28.2354 11.6334 28.3098 11.501 28.4422C11.3686 28.5745 11.2942 28.7541 11.2942 28.9413V36.0001C11.2942 36.1873 11.3686 36.3669 11.501 36.4992C11.6334 36.6316 11.8129 36.706 12.0001 36.706H19.0589C19.2461 36.706 19.4257 36.6316 19.5581 36.4992C19.6905 36.3669 19.7648 36.1873 19.7648 36.0001V28.9413C19.7648 28.7541 19.6905 28.5745 19.5581 28.4422C19.4257 28.3098 19.2461 28.2354 19.0589 28.2354ZM18.0001 30.0001V34.9413H13.0589V30.0001H18.0001ZM39.5295 25.4119V30.1173H34.8241V25.4119H39.5295ZM19.0589 8.4707C19.995 8.4707 20.8927 8.84255 21.5546 9.50444C22.2165 10.1663 22.5883 11.0641 22.5883 12.0001V19.0589C22.5883 19.995 22.2165 20.8927 21.5546 21.5546C20.8927 22.2165 19.995 22.5883 19.0589 22.5883H12.0001C11.0641 22.5883 10.1663 22.2165 9.50444 21.5546C8.84255 20.8927 8.4707 19.995 8.4707 19.0589V12.0001C8.4707 11.0641 8.84255 10.1663 9.50444 9.50444C10.1663 8.84255 11.0641 8.4707 12.0001 8.4707H19.0589ZM36.0001 8.4707C36.9362 8.4707 37.8339 8.84255 38.4958 9.50444C39.1577 10.1663 39.5295 11.0641 39.5295 12.0001V19.0589C39.5295 19.995 39.1577 20.8927 38.4958 21.5546C37.8339 22.2165 36.9362 22.5883 36.0001 22.5883H28.9413C28.0052 22.5883 27.1075 22.2165 26.4456 21.5546C25.7837 20.8927 25.4119 19.995 25.4119 19.0589V12.0001C25.4119 11.0641 25.7837 10.1663 26.4456 9.50444C27.1075 8.84255 28.0052 8.4707 28.9413 8.4707H36.0001ZM19.0589 11.2942H12.0001C11.8129 11.2942 11.6334 11.3686 11.501 11.501C11.3686 11.6334 11.2942 11.8129 11.2942 12.0001V19.0589C11.2942 19.2461 11.3686 19.4257 11.501 19.5581C11.6334 19.6905 11.8129 19.7648 12.0001 19.7648H19.0589C19.2461 19.7648 19.4257 19.6905 19.5581 19.5581C19.6905 19.4257 19.7648 19.2461 19.7648 19.0589V12.0001C19.7648 11.8129 19.6905 11.6334 19.5581 11.501C19.4257 11.3686 19.2461 11.2942 19.0589 11.2942ZM36.0001 11.2942H28.9413C28.7541 11.2942 28.5745 11.3686 28.4422 11.501C28.3098 11.6334 28.2354 11.8129 28.2354 12.0001V19.0589C28.2354 19.2461 28.3098 19.4257 28.4422 19.5581C28.5745 19.6905 28.7541 19.7648 28.9413 19.7648H36.0001C36.1873 19.7648 36.3669 19.6905 36.4992 19.5581C36.6316 19.4257 36.706 19.2461 36.706 19.0589V12.0001C36.706 11.8129 36.6316 11.6334 36.4992 11.501C36.3669 11.3686 36.1873 11.2942 36.0001 11.2942ZM34.9413 13.0589V18.0001H30.0001V13.0589H34.9413ZM17.9959 13.0618V17.9959H13.0632V13.0618H17.9959Z" fill="black"/>
</g>
<defs>
<filter id="filter0_f_1553_25715" x="-671" y="-251" width="712" height="712" filterUnits="userSpaceOnUse" color-interpolation-filters="sRGB">
<feFlood flood-opacity="0" result="BackgroundImageFix"/>
<feBlend mode="normal" in="SourceGraphic" in2="BackgroundImageFix" result="shape"/>
<feGaussianBlur stdDeviation="100" result="effect1_foregroundBlur_1553_25715"/>
</filter>
<filter id="filter1_f_1553_25715" x="-102" y="-498" width="606" height="606" filterUnits="userSpaceOnUse" color-interpolation-filters="sRGB">
<feFlood flood-opacity="0" result="BackgroundImageFix"/>
<feBlend mode="normal" in="SourceGraphic" in2="BackgroundImageFix" result="shape"/>
<feGaussianBlur stdDeviation="100" result="effect1_foregroundBlur_1553_25715"/>
</filter>
<filter id="filter2_f_1553_25715" x="-422" y="-498" width="606" height="606" filterUnits="userSpaceOnUse" color-interpolation-filters="sRGB">
<feFlood flood-opacity="0" result="BackgroundImageFix"/>
<feBlend mode="normal" in="SourceGraphic" in2="BackgroundImageFix" result="shape"/>
<feGaussianBlur stdDeviation="100" result="effect1_foregroundBlur_1553_25715"/>
</filter>
<linearGradient id="paint0_linear_1553_25715" x1="24.5" y1="-331" x2="24.5" y2="481" gradientUnits="userSpaceOnUse">
<stop stop-color="white"/>
<stop offset="1" stop-color="#FEFFD9" stop-opacity="0.2"/>
</linearGradient>
<clipPath id="clip0_1553_25715">
<rect width="375" height="812" fill="white" transform="translate(-163 -331)"/>
</clipPath>
</defs>
</svg>
