<svg width="26" height="26" viewBox="0 0 26 26" fill="none" xmlns="http://www.w3.org/2000/svg">
<path d="M25.0099 7.79707C24.8841 7.64473 24.7261 7.52208 24.5474 7.43789C24.3686 7.35371 24.1735 7.31006 23.9759 7.31007H23.9409H23.9429H20.5019L21.4559 2.66707C21.5034 2.4618 21.504 2.24846 21.4576 2.04293C21.4112 1.83741 21.319 1.645 21.1879 1.48007L21.1899 1.48307C21.0636 1.33087 20.9052 1.2084 20.7261 1.1244C20.5471 1.04039 20.3517 0.996918 20.1539 0.997071H20.1209H20.1229C19.2229 1.02607 18.4799 1.66207 18.2879 2.50707L18.2849 2.52007L18.0259 3.78207C18.0179 3.81407 18.0039 3.84407 17.9969 3.87607L17.2889 7.31107H11.4959L12.4499 2.66807C12.4974 2.4628 12.498 2.24946 12.4516 2.04393C12.4052 1.83841 12.313 1.646 12.1819 1.48107L12.1839 1.48407C12.0576 1.33187 11.8992 1.2094 11.7201 1.1254C11.5411 1.04139 11.3457 0.997918 11.1479 0.998071H11.1149H11.1169C10.2169 1.02707 9.47388 1.66307 9.28188 2.50807L9.27888 2.52107L9.00888 3.83407C9.00888 3.84907 8.99888 3.86207 8.99588 3.87607L8.29388 7.31107H4.54688C3.64688 7.34007 2.90388 7.97507 2.71088 8.82007L2.70788 8.83307C2.66006 9.03841 2.65923 9.25191 2.70546 9.45762C2.75169 9.66333 2.84379 9.85594 2.97488 10.0211L2.97288 10.0181C3.22088 10.3161 3.59188 10.5051 4.00788 10.5051H4.04188H4.03988H7.63688L6.61488 15.4751H2.86388C1.96388 15.5041 1.22088 16.1401 1.02788 16.9851L1.02488 16.9981C0.977822 17.203 0.977382 17.4158 1.02359 17.6209C1.06981 17.826 1.16149 18.0181 1.29188 18.1831L1.28988 18.1801C1.53888 18.4781 1.90988 18.6671 2.32588 18.6671H2.35988H2.35788H5.95488L4.99488 23.3351C4.94735 23.5403 4.94677 23.7537 4.99317 23.9592C5.03957 24.1647 5.13177 24.3571 5.26288 24.5221L5.26088 24.5191C5.50988 24.8171 5.88088 25.0061 6.29688 25.0061H6.32988H6.32788C6.75771 24.9925 7.17094 24.837 7.50308 24.5638C7.83522 24.2906 8.06757 23.9152 8.16388 23.4961L8.16688 23.4831L9.15688 18.6691H14.9529L13.9929 23.3371C13.9454 23.5423 13.9448 23.7557 13.9912 23.9612C14.0376 24.1667 14.1298 24.3591 14.2609 24.5241L14.2589 24.5211C14.5079 24.8191 14.8789 25.0071 15.2949 25.0071H15.3279H15.3259C15.7556 24.9936 16.1688 24.8381 16.5008 24.5649C16.8328 24.2917 17.0649 23.9162 17.1609 23.4971L17.1639 23.4841L18.1539 18.6701H21.7539C22.1836 18.6565 22.5967 18.5012 22.9288 18.2282C23.2609 17.9552 23.4934 17.58 23.5899 17.1611L23.5929 17.1481C23.6421 16.9431 23.6441 16.7296 23.5985 16.5237C23.5529 16.3179 23.4611 16.1251 23.3299 15.9601L23.3319 15.9631C23.2054 15.8107 23.0469 15.6881 22.8677 15.6039C22.6885 15.5198 22.4929 15.4761 22.2949 15.4761H22.2589H22.2609H18.8139L19.8359 10.5061H23.4359C23.8657 10.4925 24.2789 10.337 24.6111 10.0638C24.9432 9.79063 25.1756 9.41519 25.2719 8.99607L25.2749 8.98307C25.3225 8.77765 25.3231 8.56413 25.2767 8.35843C25.2303 8.15273 25.1381 7.96016 25.0069 7.79507L25.0089 7.79807L25.0099 7.79707ZM9.81888 15.4721L10.8409 10.5021H16.6369L15.6149 15.4721H9.81888Z" fill="white"/>
</svg>
