<svg width="14" height="19" viewBox="0 0 14 19" fill="none" xmlns="http://www.w3.org/2000/svg">
<path d="M7.00498 18.4997V18.4997H7.00017C6.39248 18.4997 5.81599 18.4245 5.26906 18.2759C4.71504 18.1255 4.19577 17.9148 3.71008 17.6444C3.22755 17.3757 2.7895 17.0473 2.395 16.6583C1.99692 16.2658 1.66014 15.8406 1.38314 15.3826C1.1076 14.9269 0.888968 14.4259 0.728515 13.8774C0.570727 13.3381 0.49444 12.7811 0.500315 12.2046H0.500341V12.1995C0.500341 11.6311 0.574143 11.0716 0.722029 10.5199C0.793372 10.2538 0.885064 9.99493 0.997324 9.74324C1.16916 10.0278 1.36797 10.2845 1.5944 10.5116C1.83174 10.7496 2.10576 10.9448 2.41328 11.0979C2.75426 11.2675 3.13008 11.3426 3.52883 11.3357C3.88127 11.3352 4.2187 11.2713 4.53621 11.1402L4.34539 10.678L4.53621 11.1402C4.8509 11.0103 5.12954 10.8251 5.36809 10.5856L5.01386 10.2327L5.3681 10.5856C5.60072 10.3521 5.78531 10.0857 5.91887 9.78802C6.05709 9.47997 6.12678 9.14727 6.13446 8.79644L6.13458 8.79644V8.78549C6.13458 8.49142 6.08794 8.21067 5.98447 7.95101C5.89118 7.71687 5.76246 7.4875 5.60344 7.26279L5.60346 7.26278L5.60043 7.25859C5.44477 7.04339 5.31233 6.83712 5.20205 6.63977L4.76557 6.88367L5.20205 6.63977C5.09121 6.44141 4.99551 6.24123 4.91463 6.03917C4.84179 5.85723 4.79157 5.66334 4.76491 5.45612C4.73549 5.22747 4.71444 4.97927 4.70216 4.71108C4.70346 4.18868 4.79728 3.69126 4.98304 3.21549C5.17132 2.73329 5.43526 2.30647 5.77552 1.93184L5.40539 1.59568L5.77552 1.93184C6.12014 1.55242 6.52282 1.23341 6.98617 0.97459C7.29359 0.802862 7.62342 0.67359 7.97725 0.587649C8.11804 1.75931 8.43438 2.85038 8.92929 3.85722C9.49687 5.0119 10.2755 6.07979 11.2595 7.06139L11.2599 7.06178C11.998 7.79652 12.5532 8.5852 12.9331 9.42717C13.3088 10.2597 13.5 11.1814 13.5 12.1995C13.5 12.7861 13.4231 13.3424 13.2712 13.8703C13.1172 14.4056 12.9014 14.9078 12.624 15.378C12.3484 15.845 12.0111 16.2699 11.6107 16.6532C11.2066 17.0399 10.7683 17.3677 10.2952 17.6377C9.82446 17.9064 9.30631 18.1198 8.73881 18.2765C8.18002 18.4308 7.60258 18.5054 7.00498 18.4997Z" stroke="black"/>
</svg>
