<svg width="16" height="16" viewBox="0 0 16 16" fill="none" xmlns="http://www.w3.org/2000/svg">
<path d="M3.33335 13.3333H12.6667C13.0334 13.3333 13.3334 13.6333 13.3334 14C13.3334 14.3666 13.0334 14.6666 12.6667 14.6666H3.33335C2.96669 14.6666 2.66669 14.3666 2.66669 14C2.66669 13.6333 2.96669 13.3333 3.33335 13.3333ZM3.33335 1.33331H12.6667C13.0334 1.33331 13.3334 1.63331 13.3334 1.99998C13.3334 2.36665 13.0334 2.66665 12.6667 2.66665H3.33335C2.96669 2.66665 2.66669 2.36665 2.66669 1.99998C2.66669 1.63331 2.96669 1.33331 3.33335 1.33331ZM8.66669 5.99998H9.86002C10.16 5.99998 10.3067 5.63998 10.0934 5.43331L8.23335 3.57331C8.10002 3.43998 7.89335 3.43998 7.76002 3.57331L5.90002 5.43331C5.85395 5.48031 5.82283 5.53989 5.81056 5.60455C5.7983 5.66921 5.80546 5.73605 5.83112 5.79665C5.85679 5.85725 5.89982 5.9089 5.95479 5.94508C6.00976 5.98126 6.07421 6.00037 6.14002 5.99998H7.33335V9.99998H6.14002C5.84002 9.99998 5.69335 10.36 5.90669 10.5666L7.76669 12.4266C7.90002 12.56 8.10669 12.56 8.24002 12.4266L10.1 10.5666C10.1457 10.5201 10.1767 10.4611 10.1892 10.397C10.2017 10.333 10.1951 10.2667 10.1702 10.2064C10.1454 10.146 10.1034 10.0943 10.0494 10.0576C9.99547 10.0209 9.93193 10.0009 9.86669 9.99998H8.66669V5.99998Z" fill="#098AFD"/>
</svg>
