<svg width="20" height="19" viewBox="0 0 20 19" fill="none" xmlns="http://www.w3.org/2000/svg">
<rect width="20" height="19" fill="#E4E4E4"/>
<g clip-path="url(#clip0_1553_25715)">
<rect width="375" height="812" transform="translate(-322 -529)" fill="white"/>
<rect x="-298" y="-13" width="327" height="69" rx="10" fill="#098AFD"/>
<g filter="url(#filter0_d_1553_25715)">
<rect x="-295" y="-13" width="324" height="69" rx="10" fill="white"/>
</g>
<path d="M13.1059 17.2336L12.8114 17.7407C12.7213 17.6884 12.6484 17.6145 12.5979 17.5282C12.5474 17.4421 12.5203 17.3457 12.5177 17.2481C12.516 17.1885 12.5235 17.1289 12.54 17.0714H12.5227C12.3464 17.3703 12.1116 17.6256 11.8351 17.8214H12.915C12.922 17.8127 12.9289 17.8039 12.9358 17.7951C12.8924 17.7817 12.8507 17.7635 12.8115 17.7408L13.1059 17.2336ZM13.1059 17.2336L13.1112 17.2363L13.1114 17.2364L13.2492 17.3072L13.1114 17.2352L13.1112 17.2351L13.1065 17.2326L13.1054 17.232L13.1044 17.2315L12.798 17.0714H12.7903L13.1031 17.2321L13.1032 17.2322L13.1059 17.2336ZM8.18815 17.7413C8.14922 17.7638 8.10784 17.7819 8.06483 17.7951C8.0717 17.8039 8.07861 17.8127 8.08557 17.8214H9.16551C8.88894 17.6256 8.65414 17.3703 8.47791 17.0714H8.46061C8.47708 17.129 8.48457 17.1888 8.48291 17.2485C8.48018 17.3461 8.45296 17.4427 8.40233 17.5289C8.35163 17.6152 8.27854 17.6891 8.18819 17.7413C8.18817 17.7413 8.18816 17.7413 8.18815 17.7413ZM10.5002 18.25C10.4999 18.25 10.4997 18.25 10.4995 18.25L10.5001 19L10.5008 18.25C10.5006 18.25 10.5004 18.25 10.5002 18.25ZM8.20255 17.0714L7.89619 17.2315L7.8952 17.232L7.89409 17.2326L7.8898 17.2349L7.88921 17.2352L7.75124 17.3073L7.8892 17.2364L7.8898 17.2361L7.89465 17.2336L7.89735 17.2322L7.89754 17.2321L8.2103 17.0714H8.20255ZM16.909 13.659L16.9097 13.6598C16.9279 13.6824 16.9596 13.722 16.9931 13.764C17.0326 13.8134 17.0748 13.8661 17.1005 13.898C17.1785 13.9952 17.2296 14.1156 17.2451 14.2456C17.2606 14.3759 17.2393 14.5072 17.185 14.6236L17.1844 14.6247C17.0676 14.8762 16.8256 15.0345 16.5302 15.0345H4.47432C4.17407 15.0345 3.93089 14.8741 3.81554 14.6239L3.81454 14.6218C3.7605 14.5055 3.7394 14.3743 3.75502 14.2443C3.77062 14.1143 3.82187 13.9939 3.90001 13.8969L3.90003 13.8969L3.9043 13.8915C3.95874 13.8227 4.01227 13.7562 4.06739 13.6878C4.0752 13.6781 4.08304 13.6684 4.09091 13.6586L4.09107 13.6584L4.11208 13.6323C4.5315 13.1112 4.94553 12.5969 5.22555 11.8017C5.50438 11.0099 5.63491 9.99226 5.63491 8.4471C5.63491 7.16762 5.88389 6.17646 6.33843 5.41609C6.78817 4.66373 7.4726 4.08087 8.44746 3.66774L8.48935 3.64998L8.52879 3.6273C8.61418 3.57817 8.68997 3.5153 8.75348 3.44193L8.8609 3.31784L8.90667 3.16022C9.17327 2.24213 9.85509 1.75 10.5001 1.75C11.1451 1.75 11.8272 2.24207 12.0939 3.16123L12.1375 3.31163L12.2377 3.432C12.3033 3.51088 12.3829 3.57819 12.4734 3.63003L12.5124 3.65232L12.5537 3.66981C13.3928 4.02519 13.9937 4.48902 14.4317 5.07861L14.4321 5.07916C15.0278 5.87947 15.3657 6.99353 15.3657 8.4483C15.3657 9.99301 15.4964 11.0104 15.7754 11.8021C16.055 12.5959 16.4682 13.1102 16.8864 13.6308L16.909 13.659ZM13.188 17.0922L13.1113 17.2242L13.1112 17.2245L13.1085 17.2291L13.1068 17.232L13.1085 17.2291L13.1112 17.2245L13.1113 17.2243L13.188 17.0922Z" stroke="#FD096F" stroke-width="1.5"/>
<line x1="1.12078" y1="16.591" x2="18.591" y2="1.87923" stroke="#FD096F" stroke-width="2" stroke-linecap="round"/>
</g>
<defs>
<filter id="filter0_d_1553_25715" x="-303" y="-17" width="340" height="85" filterUnits="userSpaceOnUse" color-interpolation-filters="sRGB">
<feFlood flood-opacity="0" result="BackgroundImageFix"/>
<feColorMatrix in="SourceAlpha" type="matrix" values="0 0 0 0 0 0 0 0 0 0 0 0 0 0 0 0 0 0 127 0" result="hardAlpha"/>
<feOffset dy="4"/>
<feGaussianBlur stdDeviation="4"/>
<feComposite in2="hardAlpha" operator="out"/>
<feColorMatrix type="matrix" values="0 0 0 0 0 0 0 0 0 0 0 0 0 0 0 0 0 0 0.08 0"/>
<feBlend mode="normal" in2="BackgroundImageFix" result="effect1_dropShadow_1553_25715"/>
<feBlend mode="normal" in="SourceGraphic" in2="effect1_dropShadow_1553_25715" result="shape"/>
</filter>
<clipPath id="clip0_1553_25715">
<rect width="375" height="812" fill="white" transform="translate(-322 -529)"/>
</clipPath>
</defs>
</svg>
