<svg width="20" height="20" viewBox="0 0 20 20" fill="none" xmlns="http://www.w3.org/2000/svg">
<path d="M17.6484 5.27341H16.1381C16.0349 5.27341 15.9383 5.22829 15.8738 5.1488C15.7234 4.96618 15.5623 4.79001 15.3926 4.62243C14.6984 3.92756 13.8761 3.3738 12.9713 2.99176C12.0338 2.59581 11.0262 2.39268 10.0086 2.3945C8.97948 2.3945 7.98261 2.59645 7.04589 2.99176C6.14103 3.3738 5.31877 3.92756 4.6246 4.62243C3.92918 5.31495 3.37467 6.13577 2.99179 7.03942C2.59433 7.97614 2.39452 8.97087 2.39452 9.99997C2.39452 11.0291 2.59647 12.0238 2.99179 12.9605C3.37421 13.865 3.92421 14.6793 4.6246 15.3775C5.32499 16.0757 6.13925 16.6257 7.04589 17.0082C7.98261 17.4035 8.97948 17.6054 10.0086 17.6054C11.0377 17.6054 12.0346 17.4056 12.9713 17.0082C13.8779 16.6257 14.6922 16.0757 15.3926 15.3775C15.5623 15.2078 15.7213 15.0316 15.8738 14.8511C15.9383 14.7716 16.0371 14.7265 16.1381 14.7265H17.6484C17.7838 14.7265 17.8676 14.8769 17.7924 14.9908C16.1445 17.5517 13.2613 19.2468 9.98495 19.2382C4.83729 19.2254 0.710146 15.0466 0.761708 9.90544C0.813271 4.84587 4.93397 0.761686 10.0086 0.761686C13.2764 0.761686 16.1467 2.45465 17.7924 5.00915C17.8654 5.12301 17.7838 5.27341 17.6484 5.27341ZM19.5584 10.1353L16.5098 12.5416C16.3959 12.6318 16.2305 12.5502 16.2305 12.4062V10.7734H9.48436C9.38983 10.7734 9.31249 10.6961 9.31249 10.6015V9.39841C9.31249 9.30387 9.38983 9.22653 9.48436 9.22653H16.2305V7.59372C16.2305 7.44977 16.398 7.36813 16.5098 7.45837L19.5584 9.86462C19.5789 9.88069 19.5955 9.90124 19.607 9.92469C19.6184 9.94814 19.6243 9.97388 19.6243 9.99997C19.6243 10.0261 19.6184 10.0518 19.607 10.0752C19.5955 10.0987 19.5789 10.1192 19.5584 10.1353Z" fill="white"/>
</svg>
