<svg width="76" height="76" viewBox="0 0 76 76" fill="none" xmlns="http://www.w3.org/2000/svg">
<path d="M38 6.33337C33.8415 6.33337 29.7236 7.15246 25.8817 8.74386C22.0397 10.3353 18.5488 12.6678 15.6083 15.6083C9.66961 21.547 6.33331 29.6015 6.33331 38C6.33331 46.3986 9.66961 54.4531 15.6083 60.3918C18.5488 63.3323 22.0397 65.6648 25.8817 67.2562C29.7236 68.8476 33.8415 69.6667 38 69.6667C46.3985 69.6667 54.453 66.3304 60.3917 60.3918C66.3303 54.4531 69.6666 46.3986 69.6666 38C69.6666 33.8415 68.8476 29.7237 67.2562 25.8817C65.6648 22.0398 63.3322 18.5488 60.3917 15.6083C57.4512 12.6678 53.9603 10.3353 50.1183 8.74386C46.2763 7.15246 42.1585 6.33337 38 6.33337ZM38 26.5684C43.1095 29.8879 49.0702 31.6586 55.1633 31.6667C57.6333 31.6667 60.0083 31.3817 62.2883 30.8434C62.9533 33.0917 63.3333 35.4984 63.3333 38C63.3333 51.965 51.965 63.3334 38 63.3334C28.5 63.3334 20.235 58.0767 15.8333 50.3184L21.375 44.3334V41.1667C21.375 40.1169 21.792 39.1101 22.5343 38.3677C23.2767 37.6254 24.2835 37.2084 25.3333 37.2084C26.3831 37.2084 27.3899 37.6254 28.1323 38.3677C28.8746 39.1101 29.2916 40.1169 29.2916 41.1667V44.3334H38M50.6666 37.2084C49.6168 37.2084 48.61 37.6254 47.8677 38.3677C47.1253 39.1101 46.7083 40.1169 46.7083 41.1667C46.7083 42.2165 47.1253 43.2233 47.8677 43.9657C48.61 44.708 49.6168 45.125 50.6666 45.125C51.7165 45.125 52.7233 44.708 53.4656 43.9657C54.2079 43.2233 54.625 42.2165 54.625 41.1667C54.625 40.1169 54.2079 39.1101 53.4656 38.3677C52.7233 37.6254 51.7165 37.2084 50.6666 37.2084Z" fill="white"/>
</svg>
