<svg width="22" height="30" viewBox="0 0 22 30" fill="none" xmlns="http://www.w3.org/2000/svg">
<path d="M11 3.75C10.0275 3.75 9.09491 4.14509 8.40728 4.84835C7.71964 5.55161 7.33333 6.50544 7.33333 7.5C7.33333 8.49456 7.71964 9.44839 8.40728 10.1517C9.09491 10.8549 10.0275 11.25 11 11.25C11.9725 11.25 12.9051 10.8549 13.5927 10.1517C14.2804 9.44839 14.6667 8.49456 14.6667 7.5C14.6667 6.50544 14.2804 5.55161 13.5927 4.84835C12.9051 4.14509 11.9725 3.75 11 3.75ZM9.16667 7.5C9.16667 7.00272 9.35982 6.52581 9.70364 6.17418C10.0475 5.82254 10.5138 5.625 11 5.625C11.4862 5.625 11.9525 5.82254 12.2964 6.17418C12.6402 6.52581 12.8333 7.00272 12.8333 7.5C12.8333 7.99728 12.6402 8.47419 12.2964 8.82582C11.9525 9.17746 11.4862 9.375 11 9.375C10.5138 9.375 10.0475 9.17746 9.70364 8.82582C9.35982 8.47419 9.16667 7.99728 9.16667 7.5ZM4.58333 23.4375C4.34022 23.4375 4.10706 23.5363 3.93515 23.7121C3.76324 23.8879 3.66667 24.1264 3.66667 24.375C3.66667 24.6236 3.76324 24.8621 3.93515 25.0379C4.10706 25.2137 4.34022 25.3125 4.58333 25.3125H17.4167C17.6598 25.3125 17.8929 25.2137 18.0648 25.0379C18.2368 24.8621 18.3333 24.6236 18.3333 24.375C18.3333 24.1264 18.2368 23.8879 18.0648 23.7121C17.8929 23.5363 17.6598 23.4375 17.4167 23.4375H4.58333ZM0 3.75C0 2.75544 0.386308 1.80161 1.07394 1.09835C1.76158 0.395088 2.69421 0 3.66667 0H18.3333C19.3058 0 20.2384 0.395088 20.9261 1.09835C21.6137 1.80161 22 2.75544 22 3.75V26.25C22 27.2446 21.6137 28.1984 20.9261 28.9016C20.2384 29.6049 19.3058 30 18.3333 30H3.66667C2.69421 30 1.76158 29.6049 1.07394 28.9016C0.386308 28.1984 0 27.2446 0 26.25V3.75ZM18.3333 1.875H3.66667C3.18044 1.875 2.71412 2.07254 2.3703 2.42417C2.02649 2.77581 1.83333 3.25272 1.83333 3.75V18.75H5.5V15C5.5 14.5027 5.69315 14.0258 6.03697 13.6742C6.38079 13.3225 6.8471 13.125 7.33333 13.125H14.6667C15.1529 13.125 15.6192 13.3225 15.963 13.6742C16.3068 14.0258 16.5 14.5027 16.5 15V18.75H20.1667V3.75C20.1667 3.25272 19.9735 2.77581 19.6297 2.42417C19.2859 2.07254 18.8196 1.875 18.3333 1.875ZM14.6667 15H7.33333V18.75H14.6667V15ZM1.83333 20.625V26.25C1.83333 26.7473 2.02649 27.2242 2.3703 27.5758C2.71412 27.9275 3.18044 28.125 3.66667 28.125H18.3333C18.8196 28.125 19.2859 27.9275 19.6297 27.5758C19.9735 27.2242 20.1667 26.7473 20.1667 26.25V20.625H1.83333Z" fill="black"/>
</svg>
