<svg width="12" height="14" viewBox="0 0 12 14" fill="none" xmlns="http://www.w3.org/2000/svg">
<path d="M1.33335 12.3333H10.6667C11.0334 12.3333 11.3334 12.6333 11.3334 13C11.3334 13.3666 11.0334 13.6666 10.6667 13.6666H1.33335C0.966687 13.6666 0.666687 13.3666 0.666687 13C0.666687 12.6333 0.966687 12.3333 1.33335 12.3333ZM1.33335 0.333313H10.6667C11.0334 0.333313 11.3334 0.633313 11.3334 0.99998C11.3334 1.36665 11.0334 1.66665 10.6667 1.66665H1.33335C0.966687 1.66665 0.666687 1.36665 0.666687 0.99998C0.666687 0.633313 0.966687 0.333313 1.33335 0.333313ZM6.66669 4.99998H7.86002C8.16002 4.99998 8.30669 4.63998 8.09335 4.43331L6.23335 2.57331C6.10002 2.43998 5.89335 2.43998 5.76002 2.57331L3.90002 4.43331C3.85395 4.48031 3.82283 4.53989 3.81056 4.60455C3.7983 4.66921 3.80546 4.73605 3.83112 4.79665C3.85679 4.85725 3.89982 4.9089 3.95479 4.94508C4.00976 4.98126 4.07421 5.00037 4.14002 4.99998H5.33335V8.99998H4.14002C3.84002 8.99998 3.69335 9.35998 3.90669 9.56665L5.76669 11.4266C5.90002 11.56 6.10669 11.56 6.24002 11.4266L8.10002 9.56665C8.1457 9.52006 8.1767 9.46108 8.18918 9.39704C8.20166 9.333 8.19507 9.2667 8.17023 9.20636C8.14539 9.14603 8.10338 9.09431 8.04943 9.05763C7.99547 9.02094 7.93193 9.0009 7.86669 8.99998H6.66669V4.99998Z" fill="#098AFD"/>
</svg>
