<svg width="296" height="122" viewBox="0 0 296 122" fill="none" xmlns="http://www.w3.org/2000/svg">
<path d="M108.102 121.305C108.102 121.522 83.9034 121.694 54.0545 121.694C24.1982 121.694 0 121.522 0 121.305C0 121.089 24.1982 120.917 54.0545 120.917C83.8959 120.917 108.102 121.089 108.102 121.305Z" fill="black"/>
<path d="M61.8596 116.695C61.8596 116.912 48.6274 117.084 32.309 117.084C15.983 117.084 2.75827 116.912 2.75827 116.695C2.75827 116.478 15.9905 116.306 32.309 116.306C48.6274 116.306 61.8596 116.486 61.8596 116.695Z" fill="black"/>
<path d="M87.5786 116.389C87.5786 116.605 82.8448 116.777 77.0152 116.777C71.1781 116.777 66.4518 116.605 66.4518 116.389C66.4518 116.172 71.1781 116 77.0152 116C82.8523 116 87.5786 116.179 87.5786 116.389Z" fill="black"/>
<path d="M216.102 5.30543C216.102 5.52213 191.903 5.69399 162.055 5.69399C132.198 5.69399 108 5.52213 108 5.30543C108 5.08873 132.198 4.91687 162.055 4.91687C191.896 4.91687 216.102 5.08873 216.102 5.30543Z" fill="black"/>
<path d="M169.86 0.69496C169.86 0.911658 156.627 1.08352 140.309 1.08352C123.983 1.08352 110.758 0.911658 110.758 0.69496C110.758 0.478261 123.99 0.306396 140.309 0.306396C156.627 0.306396 169.86 0.485734 169.86 0.69496Z" fill="black"/>
<path d="M195.579 0.388563C195.579 0.605262 190.845 0.777127 185.015 0.777127C179.178 0.777127 174.452 0.605262 174.452 0.388563C174.452 0.171865 179.178 0 185.015 0C190.852 0 195.579 0.179337 195.579 0.388563Z" fill="black"/>
<path d="M44.6699 25.1698C44.6699 25.0577 46.213 24.8784 49.0086 25.1623C50.4026 25.3118 52.1098 25.6032 54.0331 26.201C55.949 26.7913 58.0959 27.7254 60.1833 29.2273C62.2706 30.7218 64.2536 32.8962 65.5731 35.661C66.8926 38.4034 67.5859 41.8407 66.736 45.3078C65.8713 48.7675 63.3665 51.8462 60.1236 53.7666C56.8734 55.7393 52.8925 56.5164 48.9937 56.337C47.0331 56.2623 45.1247 55.9709 43.2833 55.5524C41.442 55.134 39.6379 54.5661 37.9457 53.8039C36.2535 53.0417 34.6582 52.0778 33.279 50.8747C31.9148 49.6567 30.7593 48.2071 30.0511 46.5707C29.3206 44.9417 29 43.2081 29 41.5492C29.0075 39.8829 29.328 38.2987 29.82 36.8491C30.8264 33.9424 32.5485 31.5587 34.4867 29.8624C36.4175 28.1587 38.4526 27.0155 40.294 26.2159C42.1427 25.4239 43.7977 24.9382 45.1619 24.6169C47.8978 23.9966 49.441 23.9294 49.4633 24.0489C49.4931 24.1984 47.9873 24.5197 45.3632 25.3491C44.0586 25.7751 42.4857 26.3504 40.7562 27.2023C39.0341 28.0616 37.1555 29.2273 35.426 30.8712C33.6965 32.4927 32.2056 34.712 31.3557 37.3498C30.9382 38.6649 30.6922 40.0846 30.7146 41.5343C30.7444 42.9839 31.0501 44.456 31.6837 45.816C32.9436 48.5733 35.5975 50.7103 38.7285 52.0554C40.294 52.7428 41.9713 53.2659 43.7232 53.6545C45.475 54.043 47.2716 54.312 49.0906 54.3868C52.7211 54.5437 56.2844 53.8487 59.1694 52.1226C62.0693 50.4339 64.2387 47.7812 65.0214 44.852C65.7967 41.9079 65.2674 38.8517 64.1343 36.341C62.9937 33.8004 61.2642 31.7828 59.3782 30.3257C57.4847 28.8612 55.5017 27.8897 53.6976 27.2247C51.8936 26.5522 50.261 26.1636 48.9117 25.9021C46.2056 25.4089 44.6625 25.3267 44.6699 25.1698Z" fill="#CABAFA"/>
<path opacity="0.2" d="M59.147 32.4629C59.147 32.4629 60.3622 54.8725 57.2908 59.2812L34.9787 53.7292L39.4963 32.9934L59.147 32.4629Z" fill="#098AFD"/>
<path d="M59.147 32.4629C59.147 32.4629 57.4846 53.6396 55.8222 55.8066L33.525 51.1363C33.525 51.1363 38.0202 38.6351 37.6848 32.4629H59.147Z" fill="#AB9DFC"/>
<path d="M40.9127 38.0671C40.935 37.8504 44.1257 38.0373 48.032 38.4707C51.9383 38.9115 55.0842 39.4346 55.0618 39.6513C55.0395 39.868 51.8488 39.6812 47.9425 39.2478C44.0362 38.8069 40.8829 38.2838 40.9127 38.0671Z" fill="black"/>
<path d="M40.0927 40.7946C40.1374 40.5779 43.3057 41.0487 47.212 41.6465C51.1108 42.2517 54.2791 42.7673 54.2567 42.984C54.2344 43.1933 51.0139 43.0289 47.0927 42.4161C43.164 41.8109 40.0479 40.9964 40.0927 40.7946Z" fill="black"/>
<path d="M42.8286 45.3079C42.8658 45.0986 44.9979 45.2854 47.5847 45.7338C50.1789 46.1821 52.2514 46.7127 52.2141 46.9219C52.1768 47.1311 50.0448 46.9443 47.458 46.496C44.8637 46.0551 42.7913 45.5171 42.8286 45.3079Z" fill="black"/>
<path d="M63.0001 66.0496C62.9926 65.9001 63.7902 65.7581 65.1694 65.4443C66.556 65.1379 68.524 64.5327 70.7605 63.3969C71.8787 62.8364 73.0416 62.0967 74.2269 61.2373C75.375 60.3257 76.5752 59.3095 77.6487 58.0616C79.8404 55.6181 81.6817 52.4125 82.5464 48.751C83.3515 45.0746 83.0757 41.3833 82.1588 38.2299C81.7264 36.6383 81.0853 35.2036 80.4442 33.881C79.7509 32.5883 79.0278 31.4151 78.2599 30.4288C76.7317 28.4411 75.2184 27.0363 74.1076 26.1621C72.9969 25.2803 72.3409 24.8021 72.4154 24.6751C72.4676 24.5705 73.2503 24.817 74.54 25.5419C75.8297 26.2592 77.5667 27.5669 79.326 29.5695C80.2131 30.5633 81.0555 31.7663 81.8606 33.1188C82.6135 34.4938 83.359 36.0181 83.8734 37.7218C84.9618 41.0993 85.3345 45.1344 84.4399 49.1994C83.4857 53.2419 81.4059 56.724 78.9682 59.2945C77.7679 60.6022 76.4335 61.6483 75.1662 62.5674C73.8542 63.4342 72.5794 64.1516 71.3494 64.6672C68.8968 65.7058 66.7647 66.1318 65.2961 66.2139C63.8126 66.2812 63.0001 66.1691 63.0001 66.0496Z" fill="#CABAFA"/>
<path d="M83.3441 24.5705C83.277 25.101 78.3643 24.9516 72.3632 24.2342C71.8712 24.1745 71.3866 24.1147 70.9244 24.0549L71.9979 23.0088C72.4228 28.3739 72.393 32.5286 71.9085 32.5734C71.4164 32.6182 70.6337 28.5383 70.082 23.1806L69.9628 22L71.1555 22.1345C71.6177 22.1868 72.1023 22.2391 72.5943 22.2989C78.5954 23.0162 83.4037 24.0325 83.3441 24.5705Z" fill="#CABAFA"/>
<path opacity="0.2" d="M123.368 77C123.368 77 121.482 111.786 126.249 118.63L160.884 110.012L153.872 77.8235L123.368 77Z" fill="#098AFD"/>
<path d="M123.368 77C123.368 77 125.949 109.872 128.529 113.236L163.141 105.987C163.141 105.987 156.163 86.581 156.684 77H123.368Z" fill="#098AFD"/>
<path d="M151.685 85.6995C151.719 86.0359 146.836 86.8478 140.772 87.5322C134.709 88.2166 129.756 88.4949 129.721 88.1586C129.686 87.8222 134.57 87.0102 140.634 86.3259C146.697 85.6531 151.65 85.3747 151.685 85.6995Z" fill="black"/>
<path d="M152.958 89.9332C153.027 90.2579 148.178 91.5107 142.091 92.4502C136.005 93.4013 131.006 93.6565 130.971 93.3318C130.936 92.9954 135.843 92.195 141.906 91.2555C147.97 90.3275 152.888 89.5968 152.958 89.9332Z" fill="black"/>
<path d="M148.699 96.9392C148.757 97.264 145.54 98.0991 141.513 98.7835C137.486 99.4795 134.176 99.7694 134.13 99.4447C134.072 99.1199 137.289 98.2847 141.316 97.6004C145.343 96.9044 148.653 96.6144 148.699 96.9392Z" fill="black"/>
<path opacity="0.1" d="M291.519 34.9795C291.519 34.9795 301.357 79.4789 291.519 101.74L286.34 110.536L222.111 98.997C222.111 98.997 242.488 55.5857 239.752 38.0171L291.519 34.9795Z" fill="#098AFD"/>
<path d="M228.715 27C228.715 27 227.878 87.0051 217 91.6296L281.884 100.448C281.884 100.448 295.703 69.3912 291.519 34.9795L228.715 27Z" fill="#BBF9D1"/>
<path d="M283.694 56.2885C283.581 56.9232 272.68 55.4044 259.337 52.9108C246.016 50.3945 235.296 47.8556 235.409 47.1982C235.522 46.5634 246.423 48.0823 259.766 50.5759C273.11 53.0921 283.829 55.6537 283.694 56.2885Z" fill="black"/>
<path d="M282.246 65.7869C282.133 66.4216 271.233 64.9028 257.889 62.4092C244.569 59.8929 233.849 57.354 233.962 56.6966C234.075 56.0618 244.976 57.5807 258.319 60.0743C271.662 62.5905 282.382 65.1521 282.246 65.7869Z" fill="black"/>
<path d="M282.133 75.8747C282.02 76.5094 271.119 74.9906 257.776 72.497C244.455 69.9807 233.735 67.4418 233.849 66.7843C233.962 66.1496 244.862 67.6684 258.206 70.162C271.526 72.6783 282.246 75.2399 282.133 75.8747Z" fill="black"/>
</svg>
