<svg width="309" height="154" viewBox="0 0 309 154" fill="none" xmlns="http://www.w3.org/2000/svg">
<path d="M108.102 153.305C108.102 153.522 83.9034 153.694 54.0545 153.694C24.1982 153.694 0 153.522 0 153.305C0 153.089 24.1982 152.917 54.0545 152.917C83.8959 152.917 108.102 153.089 108.102 153.305Z" fill="white"/>
<path d="M61.8596 148.695C61.8596 148.912 48.6274 149.084 32.309 149.084C15.983 149.084 2.75826 148.912 2.75826 148.695C2.75826 148.478 15.9905 148.306 32.309 148.306C48.6274 148.306 61.8596 148.486 61.8596 148.695Z" fill="white"/>
<path d="M87.5786 148.389C87.5786 148.605 82.8448 148.777 77.0152 148.777C71.1781 148.777 66.4518 148.605 66.4518 148.389C66.4518 148.172 71.1781 148 77.0152 148C82.8523 148 87.5786 148.179 87.5786 148.389Z" fill="white"/>
<path d="M308.102 5.30543C308.102 5.52213 283.903 5.69399 254.055 5.69399C224.198 5.69399 200 5.52213 200 5.30543C200 5.08873 224.198 4.91687 254.055 4.91687C283.896 4.91687 308.102 5.08873 308.102 5.30543Z" fill="white"/>
<path d="M261.86 0.69496C261.86 0.911658 248.627 1.08352 232.309 1.08352C215.983 1.08352 202.758 0.911658 202.758 0.69496C202.758 0.478261 215.99 0.306396 232.309 0.306396C248.627 0.306396 261.86 0.485734 261.86 0.69496Z" fill="white"/>
<path d="M287.579 0.388563C287.579 0.605262 282.845 0.777127 277.015 0.777127C271.178 0.777127 266.452 0.605262 266.452 0.388563C266.452 0.171865 271.178 0 277.015 0C282.852 0 287.579 0.179337 287.579 0.388563Z" fill="white"/>
<path opacity="0.2" d="M155.368 72C155.368 72 153.482 106.786 158.249 113.63L192.884 105.012L185.872 72.8235L155.368 72Z" fill="#098AFD"/>
<path d="M155.368 72C155.368 72 157.949 104.872 160.529 108.236L195.141 100.987C195.141 100.987 188.163 81.581 188.684 72H155.368Z" fill="#098AFD"/>
<path d="M183.685 80.6995C183.719 81.0359 178.836 81.8478 172.772 82.5322C166.709 83.2166 161.756 83.4949 161.721 83.1586C161.686 82.8222 166.57 82.0102 172.634 81.3259C178.697 80.6531 183.65 80.3747 183.685 80.6995Z" fill="black"/>
<path d="M184.958 84.9332C185.027 85.2579 180.178 86.5107 174.091 87.4502C168.005 88.4013 163.006 88.6565 162.971 88.3318C162.936 87.9954 167.843 87.195 173.906 86.2555C179.97 85.3275 184.888 84.5968 184.958 84.9332Z" fill="black"/>
<path d="M180.699 91.9392C180.757 92.264 177.54 93.0991 173.513 93.7835C169.486 94.4795 166.176 94.7694 166.13 94.4447C166.072 94.1199 169.289 93.2847 173.316 92.6004C177.343 91.9044 180.653 91.6144 180.699 91.9392Z" fill="black"/>
<path opacity="0.1" d="M21 15.9747L23.3308 117.802L124.07 98.6864L101.852 15.9747H21Z" fill="#098AFD"/>
<path d="M21 15.9748L29.4151 106.909L126.916 93.4373C126.916 93.4373 106.756 21.5273 106.181 12L21 15.9748Z" fill="#FAD04F"/>
<path d="M100.49 41.9777C100.611 42.8273 86.2325 45.3153 68.3125 46.1649C50.3925 47.0448 35.8324 45.9525 35.8627 45.1029C35.893 44.1927 50.3622 43.8892 68.1611 43.0093C85.96 42.1598 100.399 41.0675 100.49 41.9777Z" fill="black"/>
<path d="M100.641 52.7187C100.732 53.5986 86.9592 55.9652 69.8262 58.0588C52.6932 60.1221 38.7386 61.1233 38.6176 60.2434C38.5267 59.3635 52.2997 56.9969 69.4327 54.9033C86.5657 52.8401 100.52 51.8691 100.641 52.7187Z" fill="black"/>
<path d="M86.2629 70.772C86.384 71.6216 76.6067 73.5331 64.4077 74.14C52.1785 74.7771 42.2801 73.8669 42.3104 73.0173C42.3407 72.1374 52.1483 71.6216 64.2564 70.9844C76.3342 70.3776 86.1721 69.8921 86.2629 70.772Z" fill="black"/>
<path opacity="0.1" d="M291.519 66.9795C291.519 66.9795 301.357 111.479 291.519 133.74L286.34 142.536L222.111 130.997C222.111 130.997 242.488 87.5857 239.752 70.0171L291.519 66.9795Z" fill="#098AFD"/>
<path d="M228.715 59C228.715 59 227.878 119.005 217 123.63L281.884 132.448C281.884 132.448 295.703 101.391 291.519 66.9795L228.715 59Z" fill="#BBF9D1"/>
<path d="M283.694 88.2885C283.581 88.9232 272.68 87.4044 259.337 84.9108C246.016 82.3945 235.296 79.8556 235.409 79.1982C235.522 78.5634 246.423 80.0823 259.766 82.5759C273.11 85.0921 283.829 87.6537 283.694 88.2885Z" fill="black"/>
<path d="M282.246 97.7869C282.133 98.4216 271.233 96.9028 257.889 94.4092C244.569 91.8929 233.849 89.354 233.962 88.6966C234.075 88.0618 244.976 89.5807 258.319 92.0743C271.662 94.5905 282.382 97.1521 282.246 97.7869Z" fill="black"/>
<path d="M282.133 107.875C282.02 108.509 271.119 106.991 257.776 104.497C244.455 101.981 233.735 99.4418 233.849 98.7843C233.962 98.1496 244.862 99.6684 258.206 102.162C271.526 104.678 282.246 107.24 282.133 107.875Z" fill="black"/>
</svg>
