<svg width="232" height="232" viewBox="0 0 232 232" fill="none" xmlns="http://www.w3.org/2000/svg">
<path d="M157.07 14.2616H7.62939e-06L10.3364 228.172H167.407L157.07 14.2616Z" fill="white"/>
<path opacity="0.2" d="M157.07 14.2616H7.62939e-06L10.3364 228.172H167.407L157.07 14.2616Z" fill="black"/>
<path d="M158.522 14.2616H1.45134L11.7946 228.172H168.865L158.522 14.2616Z" fill="white"/>
<path opacity="0.2" d="M150.229 21.4569H8.633L18.5265 218.503L141.651 218.34L162.112 200.202L150.229 21.4569Z" fill="black"/>
<path d="M151.313 21.4501C152.822 80.4613 157.588 139.344 165.587 197.83C154.367 205.553 143.204 213.275 132.098 220.997H26.1988C16.2033 154.911 10.3367 88.2661 8.633 21.4501H151.313Z" fill="white"/>
<path d="M165.587 197.83C154.367 205.553 143.204 213.275 132.098 220.997C134.524 210.777 137.051 200.556 139.682 190.335L165.587 197.83Z" fill="#EBEBEB"/>
<path d="M47.0284 39.4792C47.2964 46.6927 47.6098 53.9107 47.9687 61.1333H26.3214C25.958 53.9107 25.6446 46.6927 25.3811 39.4792H47.0284ZM49.236 37.1967H23.0168C23.3211 45.9319 23.7004 54.6716 24.1547 63.4159H50.3807C49.9265 54.6762 49.5472 45.9364 49.2428 37.1967H49.236Z" fill="white"/>
<path d="M135.484 47.6081H61.3372C61.2691 45.9796 61.2077 44.3443 61.1464 42.7158H135.287C135.348 44.3443 135.416 45.9796 135.484 47.6081Z" fill="#C1E2FF"/>
<path d="M119.82 57.8968H61.7938C61.7188 56.2615 61.6371 54.633 61.5689 53.0045H119.588C119.665 54.6353 119.742 56.266 119.82 57.8968Z" fill="#C1E2FF"/>
<path d="M49.1543 81.888C49.6085 89.1105 50.115 96.3331 50.6738 103.556H29.0197C28.461 96.3331 27.9545 89.1105 27.5002 81.888H49.1543ZM51.2938 79.6053H25.0746C25.6106 88.3496 26.2215 97.0939 26.9075 105.838H53.1608C52.4794 97.0985 51.8662 88.3542 51.3211 79.6053H51.2938Z" fill="white"/>
<path d="M90.9089 90.0236H63.6539C63.5449 88.3883 63.4291 86.7598 63.3269 85.1245H90.5818C90.684 86.7598 90.793 88.3883 90.9089 90.0236Z" fill="#C1E2FF"/>
<path d="M116.712 90.0236H96.6732C96.5642 88.3883 96.4484 86.7598 96.3462 85.1245H116.385C116.488 86.7598 116.597 88.3883 116.712 90.0236Z" fill="#C1E2FF"/>
<path d="M129.291 100.319H64.4034C64.2807 98.6838 64.1649 97.0553 64.0423 95.42H128.929C129.052 97.0553 129.168 98.6838 129.291 100.319Z" fill="#C1E2FF"/>
<path d="M52.4044 124.317C53.054 131.54 53.7535 138.762 54.503 145.985H32.849C32.0995 138.762 31.3999 131.54 30.7504 124.317H52.4044ZM54.4894 122.034H28.2634C29.0356 130.783 29.8805 139.53 30.7981 148.274H57.0241C56.1156 139.525 55.2707 130.779 54.4894 122.034Z" fill="white"/>
<path d="M141.807 137.856H67.6536L68.1442 142.748H142.298L141.807 137.856Z" fill="#C1E2FF"/>
<path d="M124.705 127.56H66.6792C66.8291 129.189 66.979 130.824 67.1357 132.453H125.155C125.005 130.824 124.848 129.209 124.705 127.56Z" fill="#C1E2FF"/>
<path d="M56.7857 166.746C57.6306 173.969 58.5232 181.189 59.4635 188.407H37.8094C36.8691 181.194 35.9765 173.973 35.1316 166.746H56.7857ZM58.8298 164.464H32.5833C33.5826 173.212 34.6615 181.954 35.8198 190.69H62.0186C60.8694 181.954 59.7905 173.212 58.7821 164.464H58.8298Z" fill="white"/>
<path d="M145.889 174.861H71.735C71.5374 173.226 71.3398 171.598 71.149 169.962H145.296C145.494 171.618 145.684 173.247 145.889 174.861Z" fill="#C1E2FF"/>
<path d="M106.778 185.171H73.0228C72.8116 183.542 72.6072 181.907 72.4028 180.278H106.158C106.362 181.907 106.567 183.542 106.778 185.171Z" fill="#C1E2FF"/>
<path d="M126.933 185.171H112.358C112.147 183.542 111.943 181.907 111.738 180.278H126.313C126.517 181.907 126.749 183.542 126.933 185.171Z" fill="#C1E2FF"/>
<path d="M37.4892 58.0399L36.5284 56.5137C34.4298 53.1749 30.1508 50.1973 28.6722 49.3252L29.776 47.3696C32.6769 49.1312 35.2688 51.3571 37.4483 53.9585C40.7462 49.4683 45.6248 44.8281 52.3022 39.8405L53.7127 41.6802C46.5855 47.0153 41.5979 51.9008 38.4499 56.6022L37.4892 58.0399Z" fill="white"/>
<path d="M40.0784 100.462L39.0768 98.9359C36.8964 95.5971 32.5356 92.6127 31.0365 91.7406L32.079 89.785C35.0352 91.5472 37.6879 93.7743 39.9353 96.3807C43.1105 91.8836 47.8597 87.2435 54.4077 82.249C54.8914 82.8623 55.382 83.4755 55.8658 84.0955C48.8817 89.4375 44.0235 94.3161 41.005 99.0244C40.6916 99.5014 40.385 99.9852 40.0784 100.462Z" fill="white"/>
<path d="M43.8396 143L42.7971 141.474C40.5213 138.135 36.0787 135.151 34.5592 134.286C34.8863 133.604 35.2406 132.977 35.5541 132.33C38.5563 134.095 41.2644 136.318 43.5806 138.919C46.64 134.422 51.2665 129.789 57.6714 124.787L59.1841 126.634C52.3703 131.976 47.6007 136.854 44.7185 141.563L43.8396 143Z" fill="white"/>
<path d="M112.529 209.243C108.509 209.243 106.192 207.758 104.148 206.45C102.104 205.142 100.346 204.01 96.9526 204.01C93.5594 204.01 92.0468 205.196 90.4455 206.45C88.8443 207.703 86.8819 209.243 82.8618 209.243C78.8417 209.243 76.5251 207.758 74.4878 206.45C72.4505 205.142 70.6925 204.01 67.2925 204.01C63.8924 204.01 62.3866 205.196 60.7853 206.45C59.1841 207.703 57.2218 209.243 53.2085 209.243C49.1952 209.243 46.8717 207.758 44.8276 206.45C42.7835 205.142 41.0323 204.01 37.6323 204.01C37.5437 203.329 37.4483 202.702 37.3597 202.048C41.3798 202.048 43.6897 203.533 45.7338 204.842C47.7779 206.15 49.5291 207.281 52.9223 207.281C56.3155 207.281 57.8282 206.095 59.4294 204.842C61.0306 203.588 62.9998 202.048 67.0199 202.048C71.04 202.048 73.3431 203.533 75.3872 204.842C77.4313 206.15 79.1892 207.281 82.5825 207.281C85.9757 207.281 87.4884 206.095 89.0896 204.842C90.6908 203.588 92.66 202.048 96.6801 202.048C100.7 202.048 103.01 203.533 105.054 204.842C107.098 206.15 108.849 207.281 112.249 207.281C112.338 207.935 112.44 208.589 112.529 209.243Z" fill="#EBEBEB"/>
<path d="M118.293 19.5559C115.99 13.4235 110.669 9.39664 104.945 9.39664H93.28C92.4116 9.38906 91.5646 9.12677 90.8439 8.64228C90.1232 8.15778 89.5606 7.47241 89.2258 6.67114C88.4012 4.71272 87.0222 3.03798 85.2585 1.85286C83.4947 0.66773 81.423 0.0238865 79.2982 0.000496713C77.2427 -0.0203484 75.2342 0.615389 73.565 1.81517C71.8959 3.01496 70.6532 4.71616 70.0179 6.67114C69.7591 7.47104 69.251 8.16711 68.5681 8.65752C67.8852 9.14792 67.0633 9.40693 66.2226 9.39664H54.5643C48.834 9.39664 43.9009 13.444 42.1974 19.5559L41.5161 21.9884H119.193L118.293 19.5559Z" fill="#098AFD"/>
<path d="M118.709 24.3868H42.2588C41.614 24.3793 40.996 24.1276 40.5295 23.6826C40.0629 23.2375 39.7824 22.6321 39.7445 21.9884C39.7278 21.6791 39.7745 21.3697 39.8819 21.0791C39.9892 20.7886 40.1549 20.5232 40.3688 20.2991C40.5826 20.075 40.8401 19.8971 41.1253 19.7763C41.4105 19.6556 41.7174 19.5944 42.0271 19.5967H118.477C119.121 19.6041 119.738 19.8548 120.204 20.2985C120.671 20.7421 120.952 21.3459 120.991 21.9884C121.009 22.2982 120.963 22.6084 120.856 22.8997C120.749 23.191 120.584 23.4573 120.37 23.6821C120.156 23.9069 119.898 24.0854 119.612 24.2066C119.327 24.3279 119.019 24.3892 118.709 24.3868Z" fill="white"/>
<path opacity="0.2" d="M118.709 24.3868H42.2588C41.614 24.3793 40.996 24.1276 40.5295 23.6826C40.0629 23.2375 39.7824 22.6321 39.7445 21.9884C39.7278 21.6791 39.7745 21.3697 39.8819 21.0791C39.9892 20.7886 40.1549 20.5232 40.3688 20.2991C40.5826 20.075 40.8401 19.8971 41.1253 19.7763C41.4105 19.6556 41.7174 19.5944 42.0271 19.5967H118.477C119.121 19.6041 119.738 19.8548 120.204 20.2985C120.671 20.7421 120.952 21.3459 120.991 21.9884C121.009 22.2982 120.963 22.6084 120.856 22.8997C120.749 23.191 120.584 23.4573 120.37 23.6821C120.156 23.9069 119.898 24.0854 119.612 24.2066C119.327 24.3279 119.019 24.3892 118.709 24.3868Z" fill="black"/>
<path d="M187.337 226.121H182.342L181.845 214.558H186.839L187.337 226.121Z" fill="#FFC3BD"/>
<path d="M217.31 226.121H212.316L209.808 214.558H214.796L217.31 226.121Z" fill="#FFC3BD"/>
<path d="M211.962 225.542H217.569C217.668 225.541 217.764 225.575 217.841 225.637C217.918 225.699 217.971 225.786 217.992 225.883L218.98 230.325C219.002 230.433 219 230.544 218.974 230.651C218.947 230.758 218.897 230.858 218.827 230.943C218.757 231.028 218.669 231.096 218.57 231.142C218.47 231.189 218.361 231.212 218.251 231.211C216.295 231.177 215.341 231.061 212.875 231.061C211.355 231.061 208.228 231.218 206.136 231.218C204.044 231.218 203.765 229.174 204.623 228.962C208.473 228.117 209.917 226.959 211.151 225.848C211.375 225.651 211.663 225.542 211.962 225.542Z" fill="#098AFD"/>
<path d="M182.376 225.542H187.827C187.926 225.541 188.022 225.575 188.099 225.637C188.176 225.699 188.229 225.786 188.25 225.883L189.238 230.325C189.262 230.429 189.263 230.537 189.24 230.642C189.218 230.746 189.172 230.845 189.107 230.929C189.042 231.014 188.959 231.083 188.863 231.132C188.768 231.181 188.663 231.208 188.556 231.211C186.587 231.177 183.746 231.061 181.273 231.061C178.384 231.061 175.89 231.218 172.496 231.218C170.452 231.218 169.88 229.174 170.739 228.962C174.643 228.104 177.832 228.015 181.204 225.93C181.553 225.698 181.958 225.564 182.376 225.542Z" fill="#098AFD"/>
<path d="M192.161 43.9832C191.48 47.6353 191.084 52.1596 193.639 54.599C193.639 54.599 192.175 58.3056 185.388 58.3056C179.188 58.3056 182.295 54.599 182.295 54.599C186.383 53.6246 186.151 48.5892 185.443 45.7411L192.161 43.9832Z" fill="#FFC3BD"/>
<path d="M180.346 55.1099C180.482 54.2037 182.077 53.1475 183.889 52.7524C185.701 52.3572 192.665 51.4782 194.791 52.3572C196.917 53.2361 194.423 55.839 194.423 55.839L180.346 55.1099Z" fill="white"/>
<path opacity="0.4" d="M180.346 55.1099C180.482 54.2037 182.077 53.1475 183.889 52.7524C185.701 52.3572 192.665 51.4782 194.791 52.3572C196.917 53.2361 194.423 55.839 194.423 55.839L180.346 55.1099Z" fill="white"/>
<path opacity="0.2" d="M181.845 214.565L182.104 220.52H187.098L186.839 214.565H181.845Z" fill="black"/>
<path opacity="0.2" d="M214.803 214.565H209.808L211.103 220.52H216.098L214.803 214.565Z" fill="black"/>
<path d="M203.983 59.0959L197.966 63.116C197.966 63.116 206.606 78.481 205.884 80.9408C204.896 84.2931 203.519 91.6179 201.646 95.3382C201.891 96.1422 203.138 97.9751 203.833 98.2885C208.602 94.6636 213.42 83.2983 213.243 80.1163C212.827 72.9006 203.983 59.0959 203.983 59.0959Z" fill="#FFC3BD"/>
<path d="M201.646 95.3518L196.876 94.9839L199.377 100.237C199.377 100.237 203.54 100.421 204.235 97.2392L201.646 95.3518Z" fill="#B55B52"/>
<path d="M225.221 120.972L224.819 121.728L222.121 126.831L126.333 76.1849L129.427 70.3251L225.221 120.972Z" fill="white"/>
<path d="M231.415 109.272L229.439 113.006L228.321 115.118L132.527 64.472L135.621 58.6122L231.415 109.272Z" fill="white"/>
<path d="M132.559 64.4548L129.459 70.3074L225.214 121.028L228.314 115.176L132.559 64.4548Z" fill="white"/>
<path opacity="0.2" d="M132.559 64.4548L129.459 70.3074L225.214 121.028L228.314 115.176L132.559 64.4548Z" fill="black"/>
<path d="M122.204 59.389L119.417 64.6628L126.333 76.1848L135.621 58.619L122.204 59.389Z" fill="white"/>
<path opacity="0.8" d="M122.204 59.389L119.417 64.6628L126.333 76.1848L135.621 58.619L122.204 59.389Z" fill="white"/>
<path d="M116.453 59.7228L119.417 64.6627L122.204 59.3889L116.453 59.7228Z" fill="white"/>
<path d="M193.04 97.3755L195.534 102.022L199.397 100.237L196.896 94.9839L193.04 97.3755Z" fill="#B55B52"/>
<path d="M202.552 55.73C207.274 56.4113 212.684 72.7643 212.684 72.7643L202.763 78.3652C202.763 78.3652 198.395 70.6112 196.249 64.8195C193.987 58.7621 197.489 54.9941 202.552 55.73Z" fill="#098AFD"/>
<path opacity="0.2" d="M199.806 61.3377C197.66 59.3754 198.975 67.7767 199.997 73.1528C200.521 74.2021 201.019 75.156 201.441 75.9532C203.833 71.7287 202.763 64.0428 199.806 61.3377Z" fill="black"/>
<path d="M174.588 55.989C174.588 55.989 168.694 71.0609 174.288 99.1335H201.019C201.203 95.0453 198.627 75.0402 202.579 55.73C199.627 55.16 196.641 54.7822 193.64 54.599C189.861 54.3808 186.073 54.3808 182.295 54.599C179.693 54.859 177.117 55.3238 174.588 55.989Z" fill="#098AFD"/>
<path d="M178.697 62.9934L171.965 60.3292C171.965 60.3292 164.211 76.1575 161.744 76.9547C158.426 78.0449 151.612 81.043 147.483 81.629C146.965 82.3103 146.161 84.3544 146.291 85.104C151.98 86.9641 164.088 84.4975 166.596 82.5488C172.346 78.1063 178.697 62.9934 178.697 62.9934Z" fill="#FFC3BD"/>
<path opacity="0.2" d="M179.453 61.1946C178.343 58.6327 176.217 57.5629 174.002 57.9377C173.144 61.0788 171.692 67.9811 171.958 78.3789L173.546 79.142C173.546 79.142 181.354 65.5759 179.453 61.1946Z" fill="black"/>
<path d="M180.516 59.4026C182.192 63.8724 173.702 77.0229 173.702 77.0229L163.714 71.5719C165.214 67.4817 167.149 63.5641 169.485 59.8863C172.994 54.6466 178.67 54.5035 180.516 59.4026Z" fill="#098AFD"/>
<path d="M147.729 81.6154L141.787 82.8759L144.799 88.3746C146.459 87.5485 147.968 86.4472 149.262 85.1176L147.729 81.6154Z" fill="#FFC3BD"/>
<path d="M138.98 84.1229L141.351 87.4071L144.799 88.4019L141.787 82.9032L138.98 84.1229Z" fill="#FFC3BD"/>
<path d="M180.836 38.7297C180.836 39.1317 180.584 39.4111 180.319 39.4111C180.053 39.4111 179.862 39.0568 179.889 38.6548C179.917 38.2528 180.141 37.9734 180.407 37.9734C180.673 37.9734 180.864 38.3277 180.836 38.7297Z" fill="#098AFD"/>
<path d="M181.191 38.7638C180.641 39.9643 179.928 41.0832 179.072 42.0889C179.335 42.3017 179.641 42.4542 179.97 42.5354C180.298 42.6166 180.641 42.6247 180.973 42.559L181.191 38.7638Z" fill="#ED847E"/>
<path d="M180.325 37.3398C180.289 37.3321 180.255 37.3183 180.223 37.2989C180.197 37.2823 180.174 37.2606 180.156 37.2349C180.138 37.2093 180.126 37.1804 180.12 37.1499C180.113 37.1193 180.113 37.0878 180.119 37.0572C180.125 37.0266 180.138 36.9976 180.155 36.9718C180.353 36.6528 180.623 36.3851 180.944 36.1908C181.265 35.9966 181.627 35.8813 182.002 35.8544C182.064 35.8576 182.123 35.8838 182.167 35.9279C182.211 35.9719 182.237 36.0307 182.24 36.0928C182.24 36.1561 182.215 36.2168 182.17 36.2615C182.126 36.3062 182.065 36.3313 182.002 36.3313C181.711 36.3584 181.431 36.4533 181.183 36.6083C180.936 36.7633 180.729 36.9742 180.578 37.2239C180.553 37.2671 180.515 37.3015 180.47 37.3223C180.425 37.3431 180.374 37.3492 180.325 37.3398Z" fill="#098AFD"/>
<path d="M194.382 38.3822C193.796 43.3017 193.701 46.2043 191.064 48.6028C187.091 52.2004 181.129 49.5908 180.23 44.5895C179.426 40.0924 180.523 32.8085 185.47 31.1187C186.558 30.7421 187.725 30.6499 188.859 30.8508C189.993 31.0518 191.057 31.5392 191.95 32.2669C192.843 32.9945 193.535 33.9383 193.961 35.0085C194.386 36.0788 194.531 37.2401 194.382 38.3822Z" fill="#FFC3BD"/>
<path d="M184.468 39.343C182.744 39.6837 179.992 35.8543 182.24 32.6042C181.102 32.0386 177.389 34.2735 175.992 32.1885C174.595 30.1035 178.472 28.9929 177.729 27.2281C180.36 27.7664 176.026 31.0507 178.527 30.7304C181.027 30.4102 183.909 25.7905 186.703 27.6847C191.643 31.003 198.375 25.4702 195.629 32.3998C198.995 31.7184 201.298 35.6976 198.089 38.4572C191.691 43.9422 195.629 44.6645 191.575 44.9439C189.544 45.0938 184.823 42.6749 184.468 39.343Z" fill="#098AFD"/>
<path d="M187.023 40.6308C186.787 41.1226 186.456 41.5623 186.047 41.9238C185.639 42.2854 185.162 42.5616 184.645 42.7362C183.283 43.2063 182.499 41.9867 182.819 40.6444C183.105 39.4315 184.182 37.7281 185.592 37.8508C185.902 37.881 186.199 37.9884 186.456 38.1631C186.714 38.3378 186.923 38.5742 187.066 38.8508C187.208 39.1274 187.279 39.4352 187.271 39.7462C187.264 40.0571 187.179 40.3613 187.023 40.6308Z" fill="#FFC3BD"/>
<path d="M183.76 99.1335C183.76 99.1335 189.429 137.29 192.536 151.599C195.942 167.271 208.773 219.389 208.773 219.389H217.917C217.917 219.389 209.461 168.518 207.512 153.017C205.407 136.2 200.991 99.154 200.991 99.154L183.76 99.1335Z" fill="white"/>
<path opacity="0.2" d="M183.76 99.1335C183.76 99.1335 189.429 137.29 192.536 151.599C195.942 167.271 208.773 219.389 208.773 219.389H217.917C217.917 219.389 209.461 168.518 207.512 153.017C205.407 136.2 200.991 99.154 200.991 99.154L183.76 99.1335Z" fill="white"/>
<path opacity="0.2" d="M190.492 112.475C190.069 111.875 189.687 111.671 189.333 111.793H189.258C189.178 111.829 189.102 111.874 189.033 111.93C188.961 111.989 188.895 112.055 188.836 112.127L188.727 112.263L188.584 112.488C188.465 112.687 188.363 112.894 188.277 113.108C188.223 113.238 188.168 113.374 188.12 113.51C188.073 113.647 187.998 113.858 187.943 114.049C187.889 114.239 187.786 114.567 187.712 114.846C187.712 114.921 187.677 114.989 187.657 115.064C187.637 115.139 187.582 115.377 187.548 115.534C187.514 115.691 187.487 115.807 187.459 115.943C187.398 116.209 187.344 116.488 187.289 116.774C187.235 117.06 187.173 117.394 187.119 117.714C187.119 117.823 187.085 117.933 187.064 118.048C186.996 118.457 186.935 118.873 186.873 119.302C188.386 128.8 190.185 139.689 191.643 147.286C191.711 147.041 191.786 146.782 191.847 146.502C192.145 145.235 192.372 143.952 192.529 142.66C193.817 132.868 193.224 116.379 190.492 112.475Z" fill="black"/>
<path d="M174.288 99.1335C174.288 99.1335 173.607 136.459 174.145 151.688C174.711 167.523 180.244 219.369 180.244 219.369H188.699C188.699 219.369 189.006 168.443 189.381 152.894C189.79 135.941 191.834 99.1335 191.834 99.1335H174.288Z" fill="white"/>
<path opacity="0.2" d="M174.288 99.1335C174.288 99.1335 173.607 136.459 174.145 151.688C174.711 167.523 180.244 219.369 180.244 219.369H188.699C188.699 219.369 189.006 168.443 189.381 152.894C189.79 135.941 191.834 99.1335 191.834 99.1335H174.288Z" fill="white"/>
<path d="M189.258 216.779C189.292 216.779 189.258 219.539 189.258 219.539H179.508L179.099 216.439L189.258 216.779Z" fill="#098AFD"/>
<path d="M217.917 216.984C217.958 216.984 218.373 219.539 218.373 219.539H208.323L207.437 216.609L217.917 216.984Z" fill="#098AFD"/>
<path d="M210.313 226.414C209.973 226.442 209.634 226.353 209.352 226.162C209.26 226.088 209.189 225.991 209.146 225.881C209.103 225.771 209.09 225.652 209.107 225.535C209.107 225.467 209.126 225.4 209.161 225.342C209.195 225.283 209.245 225.235 209.304 225.201C209.856 224.922 211.471 225.883 211.655 226.019C211.674 226.033 211.688 226.051 211.697 226.073C211.705 226.095 211.707 226.119 211.703 226.141C211.699 226.164 211.689 226.186 211.673 226.203C211.657 226.22 211.637 226.232 211.614 226.237C211.188 226.343 210.752 226.403 210.313 226.414ZM209.57 225.385C209.518 225.374 209.465 225.374 209.413 225.385C209.39 225.399 209.37 225.419 209.357 225.443C209.344 225.467 209.337 225.494 209.338 225.521C209.328 225.601 209.337 225.682 209.366 225.757C209.394 225.832 209.441 225.898 209.502 225.951C210.058 226.209 210.693 226.243 211.273 226.046C210.754 225.718 210.175 225.494 209.57 225.385Z" fill="white"/>
<path d="M211.587 226.244C211.569 226.249 211.55 226.249 211.532 226.244C211.014 225.964 210.02 224.881 210.122 224.315C210.139 224.229 210.186 224.151 210.254 224.095C210.323 224.039 210.408 224.009 210.497 224.009C210.587 223.995 210.678 224.002 210.765 224.028C210.853 224.054 210.933 224.098 211.001 224.159C211.58 224.629 211.682 226.073 211.682 226.135C211.682 226.156 211.677 226.176 211.667 226.195C211.658 226.214 211.644 226.231 211.628 226.244C211.614 226.246 211.6 226.246 211.587 226.244ZM210.578 224.2H210.558C210.401 224.2 210.388 224.288 210.381 224.322C210.319 224.649 210.953 225.474 211.471 225.862C211.435 225.294 211.229 224.75 210.878 224.302C210.835 224.264 210.783 224.237 210.728 224.222C210.673 224.206 210.615 224.203 210.558 224.213L210.578 224.2Z" fill="white"/>
<path d="M180.298 226.414C179.871 226.454 179.442 226.346 179.085 226.107C179.007 226.036 178.946 225.947 178.908 225.847C178.87 225.748 178.856 225.641 178.867 225.535C178.867 225.47 178.885 225.407 178.919 225.352C178.953 225.296 179.001 225.252 179.058 225.222C179.664 224.881 181.674 225.903 181.899 226.019C181.922 226.029 181.941 226.047 181.952 226.069C181.963 226.092 181.966 226.117 181.961 226.142C181.958 226.166 181.947 226.188 181.93 226.206C181.912 226.223 181.89 226.234 181.865 226.237C181.35 226.347 180.825 226.406 180.298 226.414ZM179.392 225.385C179.317 225.382 179.243 225.396 179.174 225.426C179.151 225.439 179.132 225.458 179.119 225.481C179.106 225.503 179.099 225.529 179.099 225.556C179.089 225.625 179.097 225.696 179.122 225.761C179.147 225.827 179.188 225.885 179.242 225.93C179.549 226.203 180.373 226.251 181.477 226.067C180.825 225.724 180.12 225.494 179.392 225.385Z" fill="white"/>
<path d="M181.845 226.244H181.797C181.191 225.971 179.998 224.881 180.094 224.329C180.094 224.2 180.21 224.029 180.53 224.002C180.651 223.984 180.775 223.992 180.892 224.026C181.01 224.06 181.119 224.12 181.211 224.2C181.845 224.724 181.974 226.066 181.981 226.128C181.984 226.148 181.981 226.168 181.973 226.186C181.964 226.204 181.951 226.22 181.933 226.23C181.907 226.246 181.875 226.25 181.845 226.244ZM180.625 224.2H180.578C180.366 224.2 180.353 224.302 180.346 224.336C180.291 224.67 181.102 225.521 181.709 225.889C181.65 225.317 181.411 224.778 181.027 224.349C180.911 224.262 180.77 224.215 180.625 224.213V224.2Z" fill="white"/>
</svg>
