<svg width="309" height="265" viewBox="0 0 309 265" fill="none" xmlns="http://www.w3.org/2000/svg">
<path d="M298.809 11.2982H5.99362V210.758H298.809V11.2982Z" fill="#F9F8FF"/>
<path opacity="0.05" d="M103.83 139.576H103.815L99.126 110.785L58.2963 112.609V116.203C58.2963 116.203 62.0013 116.599 62.4933 118.31C62.9853 120.021 58.2963 119.102 58.2963 119.102L58.9821 122.001C62.7915 121.344 63.0375 122.92 63.0375 122.92C63.5444 125.558 59.1163 125.424 59.1163 125.424L59.2505 129.115C59.7723 127.8 63.5891 128.584 63.5668 130.258C63.5444 131.925 59.9065 131.618 59.9065 131.618L60.3016 134.779C60.9576 133.068 64.3719 133.86 64.0886 135.833C63.7979 137.805 60.4358 136.886 60.4358 136.886L60.8309 139.913C62.3591 139.277 63.8799 139.756 63.5966 141.34L62.2398 141.4V142.356C61.5913 142.266 60.9651 141.893 60.9651 141.893L61.7105 144.919L62.2398 144.859V144.994C62.2398 144.994 66.0194 145.39 66.5189 147.101C67.0183 148.812 62.2398 147.893 62.2398 147.893L62.9406 150.792C66.8245 150.135 67.0705 151.711 67.0705 151.711C67.5849 154.349 63.0748 154.215 63.0748 154.215L63.209 157.906C63.7457 156.591 67.6296 157.375 67.6073 159.049C67.5849 160.716 63.8799 160.409 63.8799 160.409L64.2824 163.57C64.9534 161.859 68.4347 162.651 68.1366 164.624C67.8458 166.596 64.4166 165.677 64.4166 165.677L64.8192 168.704C66.422 168.046 68.0322 168.569 67.6073 170.288C67.1823 171.999 64.9534 170.684 64.9534 170.684L65.7138 173.71L108.713 168.92L103.83 139.576Z" fill="#098AFD"/>
<path d="M103.83 138.045H103.815L99.126 109.254L58.2963 111.077V114.671C58.2963 114.671 62.0013 115.067 62.4933 116.778C62.9853 118.489 58.2963 117.57 58.2963 117.57L58.9821 120.47C62.7915 119.812 63.0375 121.389 63.0375 121.389C63.5444 124.026 59.1163 123.892 59.1163 123.892L59.2505 127.583C59.7723 126.268 63.5891 127.06 63.5668 128.727C63.5444 130.393 59.9065 130.086 59.9065 130.086L60.3016 133.247C60.9576 131.536 64.3719 132.328 64.0886 134.301C63.7979 136.274 60.4358 135.355 60.4358 135.355L60.8309 138.381C62.3591 137.746 63.8799 138.224 63.5966 139.808L62.2398 139.868V140.824C61.5913 140.735 60.9651 140.361 60.9651 140.361L61.7105 143.387L62.2398 143.328V143.469C62.2398 143.469 66.0194 143.866 66.5189 145.577C67.0183 147.288 62.2398 146.369 62.2398 146.369L62.9406 149.268C66.8245 148.61 67.0705 150.187 67.0705 150.187C67.5849 152.825 63.0748 152.69 63.0748 152.69L63.209 156.382C63.7457 155.067 67.6296 155.851 67.6073 157.525C67.5849 159.191 63.8799 158.885 63.8799 158.885L64.2824 162.046C64.9534 160.335 68.4347 161.127 68.1366 163.099C67.8458 165.072 64.4166 164.153 64.4166 164.153L64.8192 167.179C66.422 166.522 68.0322 167.045 67.6073 168.763C67.1823 170.475 64.9534 169.159 64.9534 169.159L65.7138 172.186L108.713 167.396L103.83 138.045Z" fill="#C1E2FF"/>
<path d="M73.0194 171.603C72.9672 171.61 72.7958 170.766 72.5274 169.234C72.2665 167.665 71.9012 165.453 71.4539 162.748C70.5743 157.263 69.3666 149.687 68.1217 141.303C66.8767 132.919 65.8852 125.304 65.2888 119.775C64.9907 117.01 64.7745 114.776 64.6552 113.221C64.5359 111.675 64.4986 110.815 64.5508 110.808C64.603 110.8 64.7446 111.652 64.9534 113.191C65.1621 114.768 65.4603 116.987 65.8256 119.707C66.5562 125.207 67.6371 132.799 68.882 141.183C70.1195 149.559 71.2452 157.151 71.9832 162.659C72.356 165.408 72.6392 167.643 72.8182 169.182C73.0045 170.744 73.0716 171.595 73.0194 171.603Z" fill="#F191A5"/>
<path d="M81.1079 132.702L82.5541 132.485L81.831 126.978H80.5115L81.1079 132.702Z" fill="black"/>
<path d="M83.4934 132.321H84.9694L84.2165 123.197H82.897L83.4934 132.321Z" fill="black"/>
<path d="M86.2144 131.798L87.6606 131.454L86.9375 119.326H85.6105L86.2144 131.798Z" fill="black"/>
<path d="M78.8565 133.21L80.1387 132.986L79.5498 128.562L78.3123 128.906L78.8565 133.21Z" fill="black"/>
<path d="M95.6521 131.798C95.6894 132.007 91.1792 133.068 85.5733 134.159C79.9673 135.25 75.3901 135.967 75.3453 135.751C75.308 135.541 79.8182 134.48 85.4242 133.389C91.0301 132.298 95.6074 131.588 95.6521 131.798Z" fill="black"/>
<path d="M77.5817 138.254C77.3655 138.299 76.471 134.577 75.7553 129.937C75.0546 125.304 74.2271 121.605 74.4284 121.545C74.6296 121.478 75.815 125.147 76.5157 129.81C77.2388 134.458 77.7905 138.216 77.5817 138.254Z" fill="black"/>
<path d="M100.393 140.593C100.431 140.802 93.9151 142.177 85.8342 143.664C77.7532 145.151 71.1781 146.182 71.1334 145.965C71.0961 145.756 77.6116 144.381 85.6925 142.894C93.7735 141.415 100.356 140.383 100.393 140.593Z" fill="black"/>
<path d="M93.2069 144.702C93.2517 144.912 88.6297 146.137 82.8746 147.437C77.1195 148.737 72.4156 149.619 72.3709 149.41C72.3261 149.201 76.9481 147.975 82.7032 146.675C88.4583 145.375 93.1622 144.493 93.2069 144.702Z" fill="black"/>
<path d="M85.8491 150.239C85.8789 150.456 83.0312 151.054 79.5125 151.719C75.9864 152.377 73.1163 152.847 73.0716 152.638C73.0269 152.429 75.8299 151.614 79.3709 150.957C82.9044 150.292 85.8193 150.03 85.8491 150.239Z" fill="black"/>
<path d="M95.4359 148.356C95.4732 148.566 94.0344 149.006 92.2154 149.328C90.3965 149.649 88.8981 149.746 88.8608 149.529C88.8235 149.32 90.2623 148.887 92.0812 148.558C93.9002 148.237 95.3986 148.147 95.4359 148.356Z" fill="black"/>
<path d="M102.637 150.471C102.66 150.576 101.109 150.979 98.5744 151.517C96.0472 152.055 92.5285 152.713 88.6372 153.34C84.7383 153.961 81.1973 154.424 78.6254 154.708C76.0535 154.984 74.4582 155.089 74.4433 154.984C74.4284 154.872 76.0013 154.581 78.5509 154.162C81.1675 153.744 84.6563 153.191 88.5179 152.571C92.372 151.958 95.8608 151.398 98.4774 150.979C101.027 150.576 102.615 150.359 102.637 150.471Z" fill="black"/>
<path d="M91.9918 154.7C92.044 154.902 88.175 156.098 83.2623 157.009C78.357 157.928 74.3091 158.205 74.2867 157.996C74.2644 157.772 78.2378 157.159 83.1206 156.247C88.0035 155.343 91.9396 154.484 91.9918 154.7Z" fill="black"/>
<path d="M75.5168 116.838C75.4497 116.756 76.3741 115.777 78.521 114.686C79.5945 114.148 80.9811 113.617 82.6733 113.289C84.3581 112.967 86.3709 112.878 88.5328 113.311C90.6798 113.752 92.9684 114.716 94.9886 116.375C97.0089 118.004 98.7533 120.417 99.5137 123.302C100.282 126.156 100.177 129.489 98.7011 132.455C97.2325 135.414 94.5115 137.731 91.3358 138.964C88.1302 140.226 84.6638 140.249 81.5924 139.546C78.4987 138.829 75.7255 137.484 73.4145 135.676C72.2665 134.757 71.2526 133.696 70.4997 132.478C69.7393 131.267 69.2697 129.9 69.0982 128.57C68.7777 125.88 69.5231 123.414 70.6264 121.501C71.7372 119.558 73.2505 118.183 74.6669 117.219C76.0982 116.248 77.4625 115.657 78.5881 115.261C80.8618 114.499 82.1888 114.447 82.2111 114.551C82.2484 114.708 80.9737 115.015 78.8714 115.964C77.8277 116.449 76.5828 117.114 75.308 118.101C74.0407 119.087 72.7361 120.41 71.8267 122.166C70.9172 123.914 70.3581 126.104 70.6935 128.353C70.8724 129.466 71.275 130.557 71.9385 131.566C72.5945 132.575 73.4891 133.479 74.5178 134.278C76.5977 135.855 79.2069 137.081 82.0024 137.701C84.7905 138.314 87.8544 138.261 90.6276 137.163C93.4082 136.087 95.7565 134.077 97.0014 131.611C98.2538 129.145 98.4104 126.268 97.7767 123.772C97.158 121.254 95.7117 119.139 93.9449 117.63C92.1856 116.098 90.1505 115.149 88.2197 114.671C86.2814 114.193 84.4252 114.178 82.8299 114.38C81.2346 114.581 79.8778 114.985 78.8118 115.396C76.6797 116.21 75.6137 116.972 75.5168 116.838Z" fill="#CABAFA"/>
<path opacity="0.41" d="M71.3943 107.52L72.3932 113.221L91.9023 111.645L90.799 106.997L71.3943 107.52Z" fill="#AB9DFC"/>
<path d="M292.875 42.0021C292.875 42.2188 230.755 42.3907 154.135 42.3907C77.4923 42.3907 15.3792 42.2188 15.3792 42.0021C15.3792 41.7854 77.4923 41.6135 154.135 41.6135C230.755 41.6135 292.875 41.7854 292.875 42.0021Z" fill="black"/>
<path d="M45.4815 204.295C45.2653 204.295 45.0939 162.307 45.0939 110.524C45.0939 58.7254 45.2653 16.7456 45.4815 16.7456C45.6977 16.7456 45.8692 58.7254 45.8692 110.524C45.8692 162.307 45.6977 204.295 45.4815 204.295Z" fill="black"/>
<path d="M232.581 203.854C232.365 203.854 232.194 160.97 232.194 108.088C232.194 55.1834 232.365 12.3145 232.581 12.3145C232.797 12.3145 232.969 55.1909 232.969 108.088C232.969 160.97 232.797 203.854 232.581 203.854Z" fill="black"/>
<path d="M47.2557 100.742C47.2557 100.959 40.1066 101.131 31.2951 101.131C22.4761 101.131 15.3344 100.959 15.3344 100.742C15.3344 100.526 22.4761 100.354 31.2951 100.354C40.1066 100.354 47.2557 100.533 47.2557 100.742Z" fill="black"/>
<path d="M47.6956 163.404C47.6956 163.621 40.8447 163.793 32.3984 163.793C23.9522 163.793 17.1012 163.621 17.1012 163.404C17.1012 163.187 23.9522 163.015 32.3984 163.015C40.8521 163.015 47.6956 163.195 47.6956 163.404Z" fill="black"/>
<path d="M154.701 80.8062C154.701 80.6941 156.244 80.5147 159.04 80.7987C160.434 80.9481 162.141 81.2396 164.064 81.8373C165.98 82.4277 168.127 83.3617 170.215 84.8637C172.302 86.3581 174.285 88.5326 175.604 91.2974C176.924 94.0397 177.617 97.477 176.767 100.944C175.903 104.404 173.398 107.483 170.155 109.403C166.905 111.376 162.924 112.153 159.025 111.973C157.064 111.899 155.156 111.607 153.315 111.189C151.473 110.77 149.669 110.202 147.977 109.44C146.285 108.678 144.69 107.714 143.31 106.511C141.946 105.293 140.791 103.843 140.082 102.207C139.352 100.578 139.031 98.8444 139.031 97.1856C139.039 95.5192 139.359 93.9351 139.851 92.4855C140.858 89.5787 142.58 87.195 144.518 85.4988C146.449 83.7951 148.484 82.6518 150.325 81.8523C152.174 81.0602 153.829 80.5745 155.193 80.2532C157.929 79.633 159.472 79.5657 159.495 79.6853C159.525 79.8347 158.019 80.1561 155.395 80.9855C154.09 81.4114 152.517 81.9868 150.788 82.8386C149.065 83.698 147.187 84.8636 145.457 86.5076C143.728 88.1291 142.237 90.3484 141.387 92.9861C140.97 94.3013 140.724 95.721 140.746 97.1706C140.776 98.6203 141.081 100.092 141.715 101.452C142.975 104.21 145.629 106.347 148.76 107.692C150.325 108.379 152.003 108.902 153.755 109.291C155.506 109.679 157.303 109.948 159.122 110.023C162.752 110.18 166.316 109.485 169.201 107.759C172.101 106.07 174.27 103.418 175.053 100.488C175.828 97.5443 175.299 94.4881 174.166 91.9773C173.025 89.4367 171.296 87.4192 169.41 85.9621C167.516 84.4975 165.533 83.5261 163.729 82.8611C161.925 82.1885 160.292 81.8 158.943 81.5385C156.237 81.0453 154.694 80.9631 154.701 80.8062Z" fill="#CABAFA"/>
<path d="M0 3.50452V222.945L304.617 217.117L309 3.50452H0ZM297.855 211.767H9.60919V12.307H297.855V211.767Z" fill="#00172D"/>
<path opacity="0.1" d="M3.97339 7.51721V218.275L302.395 212.678L306.682 7.51721H3.97339ZM295.768 207.538H13.3888V15.9759H295.768V207.538Z" fill="#00172D"/>
<path opacity="0.1" d="M132.695 48.3088L133.269 73.3861L158.078 68.6785L152.607 48.3088H132.695Z" fill="#098AFD"/>
<path d="M132.695 48.3088L134.767 70.7035L158.779 67.3858C158.779 67.3858 153.814 49.6763 153.673 47.33L132.695 48.3088Z" fill="#FAD04F"/>
<path d="M152.271 54.7127C152.301 54.9219 148.76 55.5346 144.347 55.7438C139.933 55.9605 136.348 55.6915 136.355 55.4823C136.363 55.2581 139.926 55.1834 144.309 54.9667C148.693 54.7575 152.249 54.4885 152.271 54.7127Z" fill="black"/>
<path d="M152.308 57.3579C152.331 57.5746 148.939 58.1574 144.719 58.673C140.5 59.1812 137.063 59.4278 137.033 59.2111C137.011 58.9944 140.403 58.4115 144.622 57.8959C148.842 57.3878 152.278 57.1487 152.308 57.3579Z" fill="black"/>
<path d="M148.767 61.8039C148.797 62.0132 146.389 62.4839 143.385 62.6334C140.373 62.7903 137.936 62.5661 137.943 62.3569C137.95 62.1402 140.366 62.0132 143.348 61.8563C146.322 61.7068 148.745 61.5873 148.767 61.8039Z" fill="black"/>
<path opacity="0.1" d="M17.0118 57.0216L17.5858 82.0914L42.3953 77.3838L36.916 57.0216H17.0118Z" fill="#098AFD"/>
<path d="M17.0118 57.0216L19.0842 79.4163L43.096 76.0986C43.096 76.0986 38.1311 58.389 37.9895 56.0427L17.0118 57.0216Z" fill="#FAD04F"/>
<path d="M36.588 63.4254C36.6178 63.6346 33.0768 64.2474 28.6636 64.4566C24.2504 64.6733 20.6646 64.4043 20.6721 64.1951C20.6795 63.9709 24.2429 63.8962 28.6263 63.6795C33.0097 63.4628 36.5656 63.2012 36.588 63.4254Z" fill="black"/>
<path d="M36.6178 66.0706C36.6402 66.2873 33.2483 66.8702 29.0289 67.3858C24.8095 67.8939 21.3728 68.1405 21.343 67.9238C21.3206 67.7071 24.7126 67.1242 28.932 66.6087C33.1514 66.1005 36.5955 65.8539 36.6178 66.0706Z" fill="black"/>
<path d="M33.0843 70.5167C33.1141 70.7259 30.7062 71.1967 27.7019 71.3462C24.6902 71.5031 22.2525 71.2789 22.2599 71.0697C22.2674 70.853 24.6827 70.7259 27.6646 70.569C30.6391 70.4196 33.0619 70.3 33.0843 70.5167Z" fill="black"/>
<path opacity="0.1" d="M180.964 53.9131C180.964 53.9131 184.207 68.5813 180.964 75.9192L179.257 78.8185L158.086 75.015C158.086 75.015 164.803 60.7055 163.9 54.9144L180.964 53.9131Z" fill="#098AFD"/>
<path d="M160.263 51.2828C160.263 51.2828 159.987 71.0622 156.401 72.5866L177.789 75.4933C177.789 75.4933 182.344 65.2562 180.964 53.9131L160.263 51.2828Z" fill="#BBF9D1"/>
<path d="M178.385 60.9372C178.348 61.1464 174.755 60.6458 170.356 59.8238C165.965 58.9944 162.432 58.1575 162.469 57.9408C162.506 57.7315 166.1 58.2322 170.498 59.0541C174.896 59.8836 178.43 60.728 178.385 60.9372Z" fill="black"/>
<path d="M177.908 64.068C177.871 64.2773 174.278 63.7766 169.879 62.9547C165.488 62.1252 161.955 61.2883 161.992 61.0716C162.029 60.8624 165.623 61.363 170.021 62.185C174.419 63.0144 177.953 63.8588 177.908 64.068Z" fill="black"/>
<path d="M177.871 67.3932C177.833 67.6025 174.24 67.1018 169.842 66.2799C165.451 65.4504 161.918 64.6135 161.955 64.3968C161.992 64.1876 165.585 64.6882 169.984 65.5102C174.374 66.3396 177.908 67.184 177.871 67.3932Z" fill="black"/>
<path opacity="0.1" d="M220.542 119.827C220.542 119.827 223.785 134.495 220.542 141.833L218.835 144.732L197.663 140.929C197.663 140.929 204.38 126.619 203.478 120.828L220.542 119.827Z" fill="#098AFD"/>
<path d="M199.84 117.197C199.84 117.197 199.564 136.976 195.978 138.5L217.366 141.407C217.366 141.407 221.921 131.17 220.542 119.827L199.84 117.197Z" fill="#BBF9D1"/>
<path d="M217.97 126.851C217.933 127.06 214.339 126.559 209.941 125.737C205.55 124.908 202.017 124.071 202.054 123.854C202.091 123.645 205.684 124.146 210.083 124.968C214.481 125.797 218.007 126.634 217.97 126.851Z" fill="black"/>
<path d="M217.493 129.982C217.455 130.191 213.862 129.69 209.464 128.868C205.073 128.039 201.54 127.202 201.577 126.985C201.614 126.776 205.207 127.277 209.606 128.099C214.004 128.928 217.53 129.773 217.493 129.982Z" fill="black"/>
<path d="M217.448 133.307C217.411 133.516 213.818 133.016 209.419 132.194C205.028 131.364 201.495 130.527 201.532 130.311C201.569 130.101 205.163 130.602 209.561 131.424C213.959 132.253 217.493 133.09 217.448 133.307Z" fill="black"/>
<path opacity="0.1" d="M164.556 124.094C164.556 124.094 167.799 138.762 164.556 146.1L162.849 148.999L141.678 145.195C141.678 145.195 148.395 130.886 147.493 125.095L164.556 124.094Z" fill="#098AFD"/>
<path d="M143.855 121.471C143.855 121.471 143.579 141.25 139.993 142.774L161.381 145.681C161.381 145.681 165.936 135.444 164.556 124.101L143.855 121.471Z" fill="#FAD04F"/>
<path d="M161.985 131.125C161.947 131.334 158.354 130.834 153.956 130.012C149.565 129.182 146.031 128.345 146.069 128.129C146.106 127.919 149.699 128.42 154.097 129.242C158.488 130.071 162.022 130.908 161.985 131.125Z" fill="black"/>
<path d="M161.507 134.256C161.47 134.465 157.877 133.964 153.479 133.143C149.088 132.313 145.554 131.476 145.592 131.259C145.629 131.05 149.222 131.551 153.62 132.373C158.011 133.202 161.545 134.047 161.507 134.256Z" fill="black"/>
<path d="M161.463 137.581C161.425 137.79 157.832 137.29 153.434 136.468C149.043 135.638 145.51 134.801 145.547 134.585C145.584 134.375 149.177 134.876 153.576 135.698C157.974 136.528 161.5 137.364 161.463 137.581Z" fill="black"/>
<path opacity="0.2" d="M17.0118 110.897C17.0118 110.897 15.7966 133.307 18.868 137.716L41.1801 132.164L36.6625 111.428L17.0118 110.897Z" fill="#098AFD"/>
<path d="M17.0117 110.897C17.0117 110.897 18.6742 132.074 20.3366 134.241L42.6338 129.571C42.6338 129.571 38.1386 117.07 38.474 110.897H17.0117Z" fill="#F191A5"/>
<path d="M35.2461 116.502C35.2685 116.718 32.1226 117.241 28.2163 117.682C24.31 118.123 21.1193 118.302 21.097 118.086C21.0746 117.869 24.2205 117.346 28.1268 116.905C32.0406 116.472 35.2238 116.292 35.2461 116.502Z" fill="black"/>
<path d="M36.0661 119.229C36.1109 119.438 32.9873 120.245 29.0661 120.85C25.1449 121.463 21.9245 121.628 21.9021 121.418C21.8797 121.202 25.0406 120.686 28.9469 120.081C32.8531 119.483 36.0289 119.012 36.0661 119.229Z" fill="black"/>
<path d="M33.3303 123.742C33.3675 123.952 31.2951 124.49 28.7009 124.93C26.1066 125.379 23.9745 125.566 23.9447 125.356C23.9074 125.147 25.9799 124.609 28.5741 124.168C31.1609 123.72 33.293 123.533 33.3303 123.742Z" fill="black"/>
<path opacity="0.2" d="M114.96 99.1882C114.96 99.1882 113.745 121.598 116.816 126.007L139.128 120.455L134.611 99.7188L114.96 99.1882Z" fill="#098AFD"/>
<path d="M114.96 99.1882C114.96 99.1882 116.622 120.365 118.285 122.532L140.582 117.862C140.582 117.862 136.087 105.36 136.422 99.1882H114.96Z" fill="#098AFD"/>
<path d="M133.194 104.793C133.217 105.009 130.071 105.532 126.164 105.973C122.258 106.414 119.067 106.593 119.045 106.377C119.023 106.16 122.169 105.637 126.075 105.196C129.989 104.763 133.172 104.583 133.194 104.793Z" fill="black"/>
<path d="M134.022 107.52C134.066 107.729 130.943 108.544 127.022 109.141C123.101 109.754 119.88 109.918 119.858 109.709C119.835 109.493 122.996 108.977 126.902 108.372C130.801 107.774 133.977 107.303 134.022 107.52Z" fill="black"/>
<path d="M131.278 112.033C131.316 112.242 129.243 112.78 126.649 113.221C124.055 113.67 121.923 113.856 121.893 113.647C121.856 113.438 123.928 112.9 126.522 112.459C129.109 112.011 131.241 111.824 131.278 112.033Z" fill="black"/>
<path opacity="0.2" d="M201.853 61.7516C201.853 61.7516 200.638 84.1612 203.709 88.5699L226.021 83.0179L221.503 62.2821L201.853 61.7516Z" fill="#098AFD"/>
<path d="M201.853 61.7516C201.853 61.7516 203.515 82.9283 205.178 85.0953L227.475 80.425C227.475 80.425 222.98 67.9238 223.315 61.7516H201.853Z" fill="#098AFD"/>
<path d="M220.095 67.3559C220.117 67.5726 216.971 68.0956 213.065 68.5365C209.158 68.9774 205.968 69.1567 205.945 68.94C205.923 68.7233 209.069 68.2003 212.975 67.7594C216.882 67.326 220.072 67.1467 220.095 67.3559Z" fill="black"/>
<path d="M220.915 70.0833C220.959 70.2926 217.836 71.0996 213.915 71.7048C209.993 72.3176 206.773 72.482 206.75 72.2727C206.728 72.056 209.889 71.5404 213.795 70.9352C217.702 70.3374 220.87 69.8666 220.915 70.0833Z" fill="black"/>
<path d="M218.171 74.5965C218.208 74.8058 216.136 75.3438 213.542 75.7847C210.948 76.233 208.815 76.4198 208.786 76.2106C208.748 76.0014 210.821 75.4633 213.415 75.0225C216.009 74.5741 218.141 74.3873 218.171 74.5965Z" fill="black"/>
<path opacity="0.2" d="M182.821 157.852C182.821 157.852 181.606 180.262 184.677 184.67L206.989 179.118L202.471 158.383L182.821 157.852Z" fill="#098AFD"/>
<path d="M182.821 157.852C182.821 157.852 184.483 179.029 186.145 181.196L208.443 176.525C208.443 176.525 203.947 164.024 204.283 157.852H182.821Z" fill="#098AFD"/>
<path d="M201.062 163.456C201.085 163.673 197.939 164.196 194.033 164.637C190.126 165.078 186.936 165.257 186.913 165.04C186.891 164.824 190.037 164.301 193.943 163.86C197.849 163.419 201.04 163.24 201.062 163.456Z" fill="black"/>
<path d="M201.882 166.184C201.927 166.393 198.804 167.207 194.882 167.805C190.961 168.418 187.741 168.582 187.718 168.373C187.696 168.156 190.857 167.641 194.763 167.036C198.662 166.438 201.838 165.967 201.882 166.184Z" fill="black"/>
<path d="M199.139 170.697C199.176 170.906 197.104 171.444 194.51 171.885C191.915 172.333 189.783 172.52 189.754 172.311C189.716 172.102 191.789 171.564 194.383 171.123C196.97 170.675 199.102 170.488 199.139 170.697Z" fill="black"/>
<path opacity="0.2" d="M37.3036 172.177C37.3036 172.177 38.5188 194.586 35.4474 198.995L13.1353 193.443L17.6529 172.707L37.3036 172.177Z" fill="#098AFD"/>
<path d="M37.3036 172.177C37.3036 172.177 35.6412 193.353 33.9788 195.52L11.6816 190.85C11.6816 190.85 16.1768 178.349 15.8414 172.177H37.3036Z" fill="#AB9DFC"/>
<path d="M19.0618 177.781C19.0842 177.564 22.2748 177.751 26.1811 178.184C30.0874 178.625 33.2333 179.148 33.211 179.365C33.1886 179.582 29.998 179.395 26.0917 178.961C22.1854 178.521 19.0395 177.997 19.0618 177.781Z" fill="black"/>
<path d="M18.2418 180.508C18.2865 180.292 21.4548 180.762 25.3611 181.36C29.26 181.965 32.4282 182.481 32.4059 182.698C32.3835 182.907 29.163 182.742 25.2418 182.13C21.3206 181.524 18.1971 180.71 18.2418 180.508Z" fill="black"/>
<path d="M20.9851 185.021C21.0224 184.812 23.1545 184.999 25.7413 185.447C28.3355 185.896 30.408 186.426 30.3707 186.636C30.3334 186.845 28.2014 186.658 25.6146 186.21C23.0203 185.769 20.9479 185.231 20.9851 185.021Z" fill="black"/>
<path opacity="0.2" d="M238.948 49.4446C238.948 49.4446 235.705 71.3834 237.188 74.7161L258.509 74.2379L258.807 49.4446H238.948Z" fill="#098AFD"/>
<path d="M238.948 49.4446C238.948 50.543 238.948 71.4881 238.948 71.4881H261.312L258.807 49.4446H238.948Z" fill="#098AFD"/>
<path d="M256.802 55.6317C256.802 55.8484 253.469 56.0203 249.354 56.0203C245.239 56.0203 241.907 55.8484 241.907 55.6317C241.907 55.415 245.239 55.2432 249.354 55.2432C253.469 55.2432 256.802 55.415 256.802 55.6317Z" fill="black"/>
<path d="M257.555 58.8748C257.555 59.0915 254.088 59.2932 249.802 59.3306C245.515 59.3679 242.041 59.226 242.041 59.0093C242.041 58.7926 245.508 58.5908 249.794 58.5534C254.081 58.5161 257.555 58.6581 257.555 58.8748Z" fill="black"/>
<path d="M248.922 62.0355C248.93 62.2522 247.394 62.4839 245.5 62.5661C243.599 62.6408 242.056 62.5362 242.041 62.3195C242.034 62.1028 243.562 61.8711 245.463 61.7889C247.364 61.7142 248.915 61.8263 248.922 62.0355Z" fill="black"/>
<path d="M256.802 61.8189C256.802 62.0356 255.542 62.2149 253.991 62.2299C252.433 62.2373 251.173 62.0729 251.173 61.8637C251.173 61.647 252.433 61.4677 253.984 61.4527C255.542 61.4378 256.802 61.6022 256.802 61.8189Z" fill="black"/>
<path d="M256.302 64.2622C256.302 64.4789 253.223 64.6732 249.436 64.9198C245.642 65.1589 242.563 65.3607 242.541 65.1365C242.518 64.9273 245.575 64.3818 249.384 64.1427C253.201 63.8961 256.302 64.053 256.302 64.2622Z" fill="black"/>
<path d="M160.605 32.4973C160.605 32.714 136.407 32.8859 106.558 32.8859C76.7021 32.8859 52.5039 32.714 52.5039 32.4973C52.5039 32.2806 76.7021 32.1088 106.558 32.1088C136.4 32.1088 160.605 32.2806 160.605 32.4973Z" fill="black"/>
<path d="M114.364 27.8869C114.364 28.1036 101.131 28.2754 84.8129 28.2754C68.4869 28.2754 55.2622 28.1036 55.2622 27.8869C55.2622 27.6702 68.4944 27.4983 84.8129 27.4983C101.131 27.4983 114.364 27.6776 114.364 27.8869Z" fill="black"/>
<path d="M140.082 27.5805C140.082 27.7972 135.349 27.969 129.519 27.969C123.682 27.969 118.956 27.7972 118.956 27.5805C118.956 27.3638 123.682 27.1919 129.519 27.1919C135.356 27.1919 140.082 27.3712 140.082 27.5805Z" fill="black"/>
<path d="M287.694 32.4973C287.694 32.714 277.273 32.8859 264.421 32.8859C251.561 32.8859 241.147 32.714 241.147 32.4973C241.147 32.2806 251.569 32.1088 264.421 32.1088C277.273 32.1088 287.694 32.2806 287.694 32.4973Z" fill="black"/>
<path d="M261.357 26.355C261.357 26.5717 257.04 26.7436 251.71 26.7436C246.38 26.7436 242.064 26.5717 242.064 26.355C242.064 26.1383 246.38 25.9664 251.71 25.9664C257.04 25.9664 261.357 26.1383 261.357 26.355Z" fill="black"/>
<path d="M285.853 26.355C285.853 26.5717 281.052 26.7436 275.133 26.7436C269.214 26.7436 264.413 26.5717 264.413 26.355C264.413 26.1383 269.214 25.9664 275.133 25.9664C281.06 25.9664 285.853 26.1383 285.853 26.355Z" fill="black"/>
<path d="M108.705 93.1206C108.653 93.1206 108.608 92.5228 108.586 91.4318C108.579 91.1554 108.571 90.849 108.571 90.5202C108.579 90.1914 108.608 89.8327 108.631 89.4442C108.69 88.6745 108.713 87.7853 108.892 86.8214C108.966 86.3357 109.048 85.835 109.13 85.3045C109.22 84.7814 109.369 84.2434 109.496 83.683C109.727 82.5547 110.122 81.389 110.509 80.156C111.382 77.72 112.567 75.1271 114.14 72.5791C115.743 70.0534 117.554 67.849 119.358 65.9959C120.298 65.1067 121.162 64.2399 122.079 63.5375C122.527 63.1788 122.944 62.8127 123.376 62.5063C123.816 62.1999 124.234 61.9085 124.636 61.632C125.419 61.0492 126.209 60.6457 126.873 60.2496C127.208 60.0628 127.514 59.876 127.812 59.7191C128.11 59.5846 128.386 59.4576 128.632 59.338C129.623 58.8897 130.175 58.6655 130.197 58.7103C130.272 58.8523 128.065 59.8237 124.942 62.0729C124.554 62.3569 124.152 62.6632 123.734 62.9696C123.317 63.2834 122.922 63.657 122.489 64.0232C121.61 64.7331 120.775 65.5999 119.865 66.4891C118.121 68.3348 116.361 70.5017 114.796 72.9826C113.26 75.4783 112.082 78.0115 111.18 80.3877C110.778 81.5907 110.368 82.7265 110.114 83.8324C109.98 84.3779 109.816 84.901 109.712 85.4166C109.615 85.9322 109.518 86.4253 109.428 86.8961C108.772 90.707 108.862 93.1206 108.705 93.1206Z" fill="black"/>
<path d="M115.631 85.5586C115.795 85.738 112.373 88.6298 109.346 93.158C109.205 93.3747 109.063 93.5914 108.929 93.7932L108.541 94.376L108.251 93.7409C106.111 89.0632 104.575 85.327 104.762 85.2448C104.948 85.1626 106.789 88.7568 108.951 93.4121L108.273 93.3672C108.407 93.158 108.556 92.9413 108.698 92.7172C110.249 90.4082 111.956 88.555 113.29 87.3296C114.639 86.1041 115.571 85.4764 115.631 85.5586Z" fill="black"/>
<path d="M249.787 113.699C249.69 113.707 249.407 111.869 249.153 108.88C248.9 105.891 248.706 101.736 248.758 97.1556C248.818 92.5676 249.108 88.4204 249.436 85.439C249.757 82.45 250.085 80.6193 250.182 80.6342C250.294 80.6492 250.167 82.4949 249.981 85.4838C249.794 88.4728 249.593 92.5975 249.533 97.1631C249.481 101.729 249.593 105.861 249.705 108.85C249.817 111.831 249.899 113.685 249.787 113.699Z" fill="black"/>
<path d="M255.356 98.553C255.46 98.5904 254.975 100.182 254.126 102.73C253.276 105.278 252.046 108.775 250.637 112.616C250.488 113.027 250.338 113.438 250.197 113.819L249.988 114.387L249.563 113.961C246.85 111.256 244.837 108.461 243.584 106.362C242.325 104.254 241.758 102.872 241.84 102.827C241.937 102.775 242.668 104.075 244.032 106.078C245.389 108.08 247.431 110.763 250.115 113.416L249.481 113.558C249.623 113.176 249.772 112.765 249.921 112.355C251.322 108.506 252.635 105.039 253.619 102.543C254.595 100.04 255.251 98.5157 255.356 98.553Z" fill="black"/>
<path opacity="0.2" d="M169.178 88.0991C169.178 88.0991 170.394 110.509 167.322 114.917L145.01 109.365L149.528 88.6297L169.178 88.0991Z" fill="#098AFD"/>
<path d="M169.178 88.0991C169.178 88.0991 167.516 109.276 165.854 111.443L143.556 106.773C143.556 106.773 148.052 94.2713 147.716 88.0991H169.178Z" fill="#AB9DFC"/>
<path d="M150.944 93.7034C150.966 93.4867 154.157 93.6735 158.063 94.1069C161.97 94.5478 165.116 95.0708 165.093 95.2875C165.071 95.5042 161.88 95.3174 157.974 94.884C154.068 94.4431 150.914 93.9201 150.944 93.7034Z" fill="black"/>
<path d="M150.124 96.4309C150.169 96.2142 153.337 96.6849 157.243 97.2827C161.142 97.888 164.31 98.4036 164.288 98.6203C164.266 98.8295 161.045 98.6651 157.124 98.0524C153.195 97.4471 150.079 96.6326 150.124 96.4309Z" fill="black"/>
<path d="M152.86 100.944C152.897 100.735 155.029 100.922 157.616 101.37C160.21 101.818 162.283 102.349 162.245 102.558C162.208 102.767 160.076 102.581 157.489 102.132C154.895 101.691 152.823 101.153 152.86 100.944Z" fill="black"/>
<path opacity="0.2" d="M278.078 175.031C278.078 175.031 279.293 197.441 276.221 201.849L253.909 196.297L258.427 175.562L278.078 175.031Z" fill="#098AFD"/>
<path d="M278.078 175.031C278.078 175.031 276.415 196.208 274.753 198.375L252.456 193.704C252.456 193.704 256.951 181.203 256.615 175.031H278.078Z" fill="#AB9DFC"/>
<path d="M259.836 180.635C259.858 180.419 263.049 180.605 266.955 181.039C270.861 181.48 274.007 182.003 273.985 182.219C273.963 182.436 270.772 182.249 266.866 181.816C262.959 181.375 259.813 180.844 259.836 180.635Z" fill="black"/>
<path d="M259.016 183.355C259.061 183.138 262.229 183.609 266.135 184.207C270.034 184.812 273.202 185.328 273.18 185.545C273.157 185.754 269.937 185.589 266.016 184.977C262.095 184.379 258.971 183.564 259.016 183.355Z" fill="black"/>
<path d="M261.759 187.876C261.796 187.667 263.928 187.854 266.515 188.302C269.11 188.75 271.182 189.281 271.145 189.49C271.107 189.699 268.975 189.512 266.389 189.064C263.794 188.616 261.722 188.085 261.759 187.876Z" fill="black"/>
<path opacity="0.2" d="M59.3772 141.884C59.3772 141.884 60.5923 164.293 57.521 168.702L35.2089 163.15L39.7265 142.414L59.3772 141.884Z" fill="#098AFD"/>
<path d="M59.3772 141.884C59.3772 141.884 57.7148 163.06 56.0524 165.227L33.7552 160.557C33.7552 160.557 38.2504 148.056 37.9149 141.884H59.3772Z" fill="#AB9DFC"/>
<path d="M41.1354 147.488C41.1578 147.271 44.3484 147.458 48.2547 147.891C52.161 148.332 55.3069 148.855 55.2845 149.072C55.2622 149.289 52.0715 149.102 48.1652 148.668C44.2589 148.228 41.113 147.705 41.1354 147.488Z" fill="black"/>
<path d="M40.3154 150.215C40.3601 149.998 43.5284 150.469 47.4347 151.067C51.3335 151.672 54.5018 152.188 54.4794 152.405C54.4571 152.614 51.2366 152.449 47.3154 151.837C43.3867 151.231 40.2707 150.424 40.3154 150.215Z" fill="black"/>
<path d="M43.0513 154.729C43.0886 154.519 45.2206 154.706 47.8074 155.154C50.4017 155.603 52.4741 156.133 52.4368 156.343C52.3996 156.552 50.2675 156.365 47.6807 155.917C45.0939 155.476 43.0215 154.938 43.0513 154.729Z" fill="black"/>
<path opacity="0.2" d="M186.518 48.6675C186.518 48.6675 185.303 71.0771 188.374 75.4858L210.687 69.9338L206.169 49.198L186.518 48.6675Z" fill="#098AFD"/>
<path d="M186.518 48.6675C186.518 48.6675 188.181 69.8442 189.843 72.0112L212.14 67.3409C212.14 67.3409 207.645 54.8397 207.98 48.6675H186.518Z" fill="#F191A5"/>
<path d="M204.76 54.2718C204.782 54.4885 201.636 55.0115 197.73 55.4524C193.824 55.8933 190.633 56.0726 190.611 55.8559C190.589 55.6392 193.734 55.1161 197.641 54.6753C201.547 54.2419 204.73 54.0625 204.76 54.2718Z" fill="black"/>
<path d="M205.58 56.9992C205.625 57.2085 202.501 58.0155 198.58 58.6207C194.659 59.2335 191.438 59.3979 191.416 59.1886C191.394 58.9719 194.554 58.4563 198.461 57.8511C202.36 57.2533 205.535 56.7825 205.58 56.9992Z" fill="black"/>
<path d="M202.837 61.5124C202.874 61.7217 200.802 62.2597 198.207 62.7006C195.613 63.1489 193.481 63.3357 193.451 63.1265C193.414 62.9173 195.486 62.3792 198.081 61.9384C200.667 61.49 202.799 61.3032 202.837 61.5124Z" fill="black"/>
<path opacity="0.2" d="M198.804 148.504C198.804 148.504 197.589 170.914 200.66 175.322L222.972 169.77L218.454 149.035L198.804 148.504Z" fill="#098AFD"/>
<path d="M198.804 148.504C198.804 148.504 200.466 169.681 202.129 171.848L224.426 167.177C224.426 167.177 219.93 154.676 220.266 148.504H198.804Z" fill="#F191A5"/>
<path d="M217.045 154.101C217.068 154.318 213.922 154.841 210.016 155.282C206.109 155.722 202.919 155.902 202.896 155.685C202.874 155.468 206.02 154.945 209.926 154.504C213.84 154.071 217.023 153.892 217.045 154.101Z" fill="black"/>
<path d="M217.866 156.828C217.91 157.038 214.787 157.845 210.865 158.45C206.944 159.063 203.724 159.227 203.701 159.018C203.679 158.801 206.84 158.285 210.746 157.68C214.653 157.082 217.821 156.619 217.866 156.828Z" fill="black"/>
<path d="M215.13 161.349C215.167 161.558 213.094 162.096 210.5 162.537C207.906 162.986 205.774 163.172 205.744 162.963C205.707 162.754 207.779 162.216 210.373 161.775C212.96 161.327 215.092 161.132 215.13 161.349Z" fill="black"/>
<path opacity="0.39" d="M177.528 5.08118V44.0271L233.655 42.6448L232.44 5.08118H177.528Z" fill="#4A407F"/>
<path d="M180.674 1.35999V40.306L236.793 38.9236L235.578 1.35999H180.674Z" fill="#C1E2FF"/>
<path d="M185.579 5.55945V35.3294L231.888 34.5522L231.731 5.55945H185.579Z" fill="#00172D"/>
<path d="M193.772 9.1088C193.705 9.09386 193.816 8.6754 193.839 7.96553C193.839 7.61433 193.787 7.17346 193.481 6.82973C193.19 6.46358 192.653 6.29172 192.266 6.68028C191.856 7.03896 191.781 7.71894 191.826 8.49607C191.893 9.25825 191.886 10.0952 192.012 10.9321C192.079 11.343 192.191 11.7391 192.4 12.0679C192.601 12.3892 192.922 12.6507 193.257 12.7254C193.593 12.8076 193.943 12.6806 194.226 12.3966C194.517 12.1202 194.681 11.7241 194.778 11.2683C194.868 10.82 194.882 10.3193 194.92 9.82615C194.942 9.33297 194.964 8.84727 194.987 8.37651C195.024 7.42752 195.039 6.50842 195.039 5.62668C195.039 4.75241 195.024 3.91551 195.002 3.13838C194.957 2.36873 195.009 1.58413 194.815 1.08348C194.651 0.61272 194.003 0.463273 193.548 0.433384C193.034 0.440856 192.586 0.440856 192.288 0.582831C191.99 0.709861 191.856 0.948977 191.789 1.12084C191.722 1.29271 191.699 1.39732 191.669 1.39732C191.647 1.39732 191.61 1.29271 191.632 1.08348C191.647 0.881725 191.766 0.530524 192.147 0.313826C192.512 0.0896547 193.004 0.0522929 193.533 -1.36746e-05C193.824 -0.0149584 194.13 0.0224034 194.45 0.127017C194.756 0.216685 195.143 0.470745 195.307 0.851836C195.479 1.21798 195.516 1.59907 195.546 1.96522C195.576 2.33136 195.598 2.71246 195.628 3.10102C195.68 3.88562 195.717 4.72999 195.732 5.61173C195.747 6.49347 195.747 7.42752 195.725 8.39145C195.702 8.86969 195.688 9.36286 195.665 9.86351C195.635 10.3567 195.62 10.8723 195.516 11.4178C195.412 11.9558 195.181 12.5311 194.748 12.9421C194.346 13.3606 193.675 13.6221 193.063 13.4577C192.467 13.3083 192.027 12.9048 191.744 12.4415C191.468 11.9782 191.349 11.485 191.282 11.0292C191.163 10.1176 191.2 9.27319 191.163 8.47365C191.148 8.07761 191.177 7.68158 191.267 7.27807C191.364 6.88204 191.573 6.49347 191.886 6.24688C192.191 5.98535 192.631 5.87327 193.004 5.97788C193.369 6.07502 193.63 6.31414 193.802 6.55325C194.167 7.0539 194.167 7.60686 194.115 7.98047C194.018 8.7576 193.809 9.11627 193.772 9.1088Z" fill="black"/>
<path d="M185 31.2567L200.853 11L212.406 21.2145L218.546 14.4283L232 28.6894V36H185V31.2567Z" fill="#C1E2FF"/>
<path d="M244.397 121.314L285.227 119.491L290.005 148.835L247.804 153.624L247.058 150.598C247.058 150.598 249.25 151.913 249.668 150.202C250.085 148.491 248.505 147.96 246.932 148.618L246.537 145.592C246.537 145.592 249.899 146.511 250.189 144.538C250.48 142.565 247.058 141.773 246.402 143.484L246.007 140.324C246.007 140.324 249.645 140.637 249.668 138.964C249.69 137.297 245.881 136.505 245.351 137.82L245.217 134.129C245.217 134.129 249.645 134.263 249.138 131.626C249.138 131.626 248.892 130.042 245.083 130.707L244.397 127.807C244.397 127.807 249.086 128.726 248.594 127.015C248.102 125.304 244.397 124.908 244.397 124.908V121.314Z" fill="#C1E2FF"/>
<path opacity="0.41" d="M258.8 118.684L259.083 120.081V121.351V122.487H273.709V118.123L258.8 118.684Z" fill="#AB9DFC"/>
<path d="M278.011 126.216C278.025 126.432 272.919 126.948 266.612 127.374C260.298 127.8 255.177 127.972 255.162 127.755C255.147 127.538 260.253 127.023 266.56 126.597C272.867 126.171 277.996 125.999 278.011 126.216Z" fill="black"/>
<path d="M271.592 129.444C271.607 129.66 267.835 130.131 263.161 130.505C258.487 130.878 254.685 131.006 254.67 130.789C254.655 130.572 258.427 130.101 263.101 129.728C267.775 129.362 271.577 129.235 271.592 129.444Z" fill="black"/>
<path d="M262.982 133.225C262.974 133.18 263.66 132.948 264.957 132.754C265.606 132.664 266.411 132.59 267.35 132.634C268.282 132.679 269.37 132.851 270.481 133.314C271.585 133.778 272.733 134.525 273.582 135.698C274.447 136.849 274.887 138.47 274.656 140.084C274.44 141.691 273.657 143.298 272.367 144.508C271.063 145.719 269.274 146.414 267.432 146.526C263.735 146.757 260.216 144.897 258.539 142.124C257.711 140.735 257.406 139.135 257.629 137.701C257.838 136.251 258.643 135.056 259.553 134.271C260.47 133.471 261.498 133.023 262.415 132.799C263.34 132.575 264.16 132.552 264.816 132.597C265.472 132.634 265.979 132.747 266.314 132.829C266.649 132.918 266.814 132.986 266.814 133.008C266.799 133.075 266.09 132.896 264.816 132.896C264.175 132.903 263.392 132.971 262.534 133.217C261.677 133.464 260.745 133.92 259.925 134.674C259.113 135.422 258.434 136.498 258.278 137.783C258.106 139.061 258.397 140.495 259.165 141.736C260.701 144.224 263.996 145.958 267.395 145.734C269.087 145.636 270.705 144.994 271.86 143.933C273.023 142.864 273.746 141.407 273.955 139.972C274.179 138.523 273.821 137.118 273.068 136.064C272.323 135.003 271.286 134.271 270.265 133.808C268.193 132.889 266.254 132.971 264.995 133.038C263.705 133.15 262.997 133.285 262.982 133.225Z" fill="black"/>
<path d="M266.374 141.601C266.18 141.669 265.293 139.621 264.823 136.931C264.338 134.241 264.473 132.014 264.674 132.014C264.898 132.007 265.114 134.174 265.583 136.797C266.046 139.419 266.582 141.527 266.374 141.601Z" fill="black"/>
<path d="M277.191 137.551C277.258 137.753 274.671 138.814 271.413 139.913C268.148 141.018 265.449 141.743 265.382 141.542C265.315 141.34 267.902 140.279 271.167 139.18C274.425 138.082 277.123 137.35 277.191 137.551Z" fill="black"/>
<path d="M271.883 138.68C271.681 138.597 271.838 137.768 272.017 136.767C272.196 135.773 272.337 134.936 272.554 134.929C272.762 134.914 272.979 135.81 272.777 136.909C272.591 137.992 272.077 138.762 271.883 138.68Z" fill="black"/>
<path d="M270.615 139.128C270.653 139.098 270.72 139.106 270.824 139.165L270.593 139.233C270.504 138.859 270.563 137.888 270.757 136.774C271.003 135.354 271.368 134.226 271.577 134.263C271.786 134.301 271.763 135.481 271.517 136.901C271.324 138.015 271.063 138.949 270.854 139.27L270.697 139.517L270.623 139.337C270.586 139.233 270.578 139.158 270.615 139.128Z" fill="black"/>
<path d="M269.281 139.016C269.356 139.001 269.452 139.135 269.579 139.389L269.192 139.412C269.147 138.889 269.184 137.947 269.266 136.871C269.393 135.242 269.579 133.92 269.795 133.927C270.004 133.927 270.168 135.28 270.041 136.931C269.959 138.022 269.766 138.964 269.587 139.464L269.229 140.465L269.199 139.487C269.177 139.203 269.206 139.031 269.281 139.016Z" fill="black"/>
<path d="M267.991 139.36C267.783 139.33 267.738 137.985 267.902 136.356C268.066 134.727 268.372 133.412 268.588 133.427C268.804 133.441 268.841 134.786 268.677 136.43C268.513 138.074 268.208 139.389 267.991 139.36Z" fill="black"/>
<path d="M266.463 139.845C266.523 139.83 266.605 139.957 266.709 140.204L266.389 140.234C266.292 139.569 266.277 138.112 266.366 136.43C266.493 134.114 266.769 132.246 266.977 132.261C267.194 132.276 267.261 134.159 267.141 136.475C267.052 138.157 266.881 139.606 266.717 140.256L266.426 141.392L266.396 140.279C266.381 140.01 266.403 139.86 266.463 139.845Z" fill="black"/>
<path d="M275.178 141.87C275.222 141.885 275.163 142.251 274.909 142.879C274.656 143.499 274.186 144.366 273.389 145.278C272.583 146.174 271.435 147.108 269.937 147.721C268.446 148.341 266.612 148.566 264.778 148.244C262.944 147.915 261.297 147.079 260.112 145.98C258.911 144.889 258.151 143.611 257.704 142.498C257.264 141.37 257.115 140.391 257.092 139.726C257.07 139.053 257.145 138.687 257.189 138.687C257.338 138.672 257.249 140.182 258.211 142.281C258.695 143.313 259.456 144.471 260.589 145.45C261.707 146.436 263.228 147.183 264.92 147.49C266.612 147.781 268.297 147.602 269.684 147.064C271.085 146.533 272.188 145.711 273.001 144.912C274.604 143.253 275.044 141.803 275.178 141.87Z" fill="black"/>
<path d="M283.788 132.074C283.833 132.283 282.319 132.784 280.418 133.195C278.51 133.606 276.93 133.763 276.885 133.554C276.84 133.344 278.353 132.844 280.254 132.433C282.163 132.022 283.743 131.857 283.788 132.074Z" fill="black"/>
<path d="M280.359 135.1C280.284 135.295 278.577 134.846 276.527 134.084L275.744 133.793L276.467 133.382C276.505 133.359 276.535 133.344 276.572 133.322C278.532 132.209 280.202 131.461 280.307 131.648C280.411 131.835 278.913 132.889 276.952 133.994C276.915 134.017 276.877 134.039 276.848 134.054L276.795 133.352C278.853 134.129 280.433 134.906 280.359 135.1Z" fill="black"/>
<path opacity="0.2" d="M280.605 141.609L279.449 144.516C279.449 144.516 289.797 147.579 289.774 147.415C289.752 147.258 288.827 141.601 288.827 141.601L280.605 141.609Z" fill="#098AFD"/>
<path d="M281.268 138.172L301.411 139.928L299.637 146.159L279.449 144.516L276.661 141.011L281.268 138.172Z" fill="#BBF9D1"/>
<path d="M298.198 142.954C298.198 143.059 297.333 143.133 295.939 143.066C294.553 143.006 292.644 142.812 290.549 142.55C288.455 142.281 286.569 142.005 285.204 141.811C283.84 141.609 282.998 141.482 282.998 141.377C282.998 141.273 283.863 141.198 285.257 141.265C286.643 141.325 288.552 141.519 290.646 141.781C292.741 142.05 294.627 142.326 295.991 142.52C297.356 142.722 298.198 142.842 298.198 142.954Z" fill="black"/>
<path d="M56.8799 54.9368L97.7096 53.1135L102.488 82.4575L60.2867 87.2473L59.5412 84.221C59.5412 84.221 61.7329 85.5361 62.1504 83.825C62.5678 82.1138 60.9874 81.5832 59.4145 82.2408L59.0194 79.2145C59.0194 79.2145 62.3815 80.1336 62.6722 78.1609C62.9629 76.1882 59.5412 75.3961 58.8852 77.1073L58.4901 73.9465C58.4901 73.9465 62.128 74.2603 62.1504 72.5865C62.1727 70.9202 58.3633 70.1281 57.8341 71.4432L57.6999 67.7519C57.6999 67.7519 62.128 67.8864 61.6211 65.2486C61.6211 65.2486 61.3751 63.6645 57.5657 64.3295L56.8799 61.4303C56.8799 61.4303 61.5689 62.3494 61.0769 60.6382C60.5849 58.927 56.8799 58.531 56.8799 58.531V54.9368Z" fill="#C1E2FF"/>
<path opacity="0.41" d="M71.2825 52.3065L71.5583 53.7039V54.9742V56.11H86.192V51.7461L71.2825 52.3065Z" fill="#AB9DFC"/>
<path d="M90.4859 59.8387C90.5008 60.0554 85.3943 60.571 79.0876 60.9969C72.7734 61.4228 67.652 61.5947 67.6371 61.378C67.6222 61.1613 72.7287 60.6457 79.0354 60.2198C85.3496 59.8013 90.4785 59.6294 90.4859 59.8387Z" fill="black"/>
<path d="M84.0748 63.0742C84.0897 63.2909 80.3176 63.7617 75.6435 64.1353C70.9693 64.5089 67.1674 64.636 67.1525 64.4193C67.1376 64.2026 70.9097 63.7318 75.5838 63.3582C80.258 62.9846 84.0599 62.8575 84.0748 63.0742Z" fill="black"/>
<path d="M96.2708 65.697C96.3156 65.9062 94.8023 66.4068 92.9013 66.8178C90.9929 67.2288 89.4125 67.3857 89.3677 67.1765C89.323 66.9673 90.8363 66.4666 92.7373 66.0556C94.6382 65.6447 96.2261 65.4877 96.2708 65.697Z" fill="black"/>
<path d="M92.8416 68.7233C92.7671 68.9176 91.06 68.4692 89.0099 67.707L88.2271 67.4156L88.9503 67.0046C88.9875 66.9822 89.0173 66.9673 89.0546 66.9449C91.0152 65.8315 92.6851 65.0842 92.7895 65.271C92.8938 65.4579 91.3954 66.5115 89.4348 67.6174C89.3975 67.6398 89.3603 67.6622 89.3304 67.6772L89.2783 66.9747C91.3283 67.7519 92.9162 68.529 92.8416 68.7233Z" fill="black"/>
<path opacity="0.2" d="M93.0877 75.2317L91.9322 78.1385C91.9322 78.1385 102.279 81.2021 102.257 81.0377C102.235 80.8808 101.31 75.2242 101.31 75.2242L93.0877 75.2317Z" fill="#098AFD"/>
<path d="M93.7511 71.7944L113.894 73.5504L112.12 79.7824L91.9322 78.1385L89.1441 74.6414L93.7511 71.7944Z" fill="#F191A5"/>
<path d="M110.681 76.5768C110.681 76.6814 109.816 76.7562 108.422 76.6889C107.036 76.6291 105.127 76.4348 103.032 76.1733C100.938 75.9043 99.0514 75.6278 97.6872 75.4335C96.323 75.2318 95.4806 75.1048 95.4806 75.0002C95.4806 74.8955 96.3454 74.8208 97.7394 74.8881C99.126 74.9478 101.034 75.1421 103.129 75.4037C105.224 75.6727 107.11 75.9491 108.474 76.1434C109.838 76.3452 110.681 76.4722 110.681 76.5768Z" fill="black"/>
<path d="M89.6584 75.4036C89.6734 75.411 89.6212 75.5754 89.4199 75.8145C89.2186 76.0537 88.8384 76.36 88.2495 76.5394C87.6755 76.7038 86.8555 76.7561 86.0727 76.2778C85.2825 75.7996 84.8129 74.8506 84.455 73.8867C84.2687 73.401 84.0972 72.9003 83.8288 72.4445C83.5679 71.9887 83.2175 71.5478 82.7702 71.2863C82.3304 71.0248 81.7639 71.0023 81.3166 71.2788C80.8618 71.5478 80.5189 72.0858 80.3325 72.6687C80.1238 73.2739 80.1238 73.8867 80.1984 74.5965C80.2505 75.299 80.3698 76.091 80.1014 76.9205C79.9673 77.324 79.7585 77.7125 79.4156 78.0264C79.0801 78.3477 78.5881 78.542 78.0961 78.5195C77.1046 78.4523 76.3964 77.7648 75.9566 77.0251C75.0918 75.5082 75.1217 73.8568 74.8309 72.4595C74.6967 71.757 74.488 71.092 74.1451 70.5391C73.8022 70.001 73.3102 69.5527 72.7585 69.336C72.2143 69.1118 71.6179 69.1641 71.1334 69.4331C70.6413 69.7021 70.2462 70.158 69.9406 70.6362C69.3368 71.6151 69.0013 72.706 68.7329 73.6774C68.226 75.6427 68.1887 77.3165 68.2409 78.4598C68.2931 79.603 68.4049 80.2382 68.3453 80.2457C68.3006 80.2531 68.0844 79.6404 67.9427 78.4822C67.7936 77.3314 67.7489 75.6053 68.2036 73.5429C68.4571 72.5192 68.7553 71.4058 69.4039 70.2925C69.7393 69.747 70.1717 69.2015 70.8128 68.8354C71.4465 68.4617 72.3038 68.3721 73.0269 68.6635C73.7574 68.94 74.3538 69.478 74.7787 70.1355C75.1962 70.8006 75.4348 71.5553 75.5839 72.3025C75.8895 73.797 75.9044 75.3662 76.635 76.6216C76.9704 77.2193 77.5668 77.7125 78.1408 77.7349C78.7149 77.7798 79.192 77.2791 79.3858 76.6664C79.5945 76.0686 79.52 75.3587 79.4603 74.6489C79.3858 73.9465 79.3932 73.1245 79.6542 72.4296C79.8927 71.7346 80.3102 71.0621 80.9737 70.6736C81.6446 70.27 82.5093 70.3373 83.0983 70.7109C84.2836 71.4806 84.6488 72.7434 84.9769 73.6774C85.2974 74.6414 85.6851 75.4708 86.3187 75.8967C86.9375 76.3227 87.6606 76.3376 88.1824 76.233C89.2708 75.9939 89.6063 75.3363 89.6584 75.4036Z" fill="black"/>
<path d="M66.7425 83.4513C66.5263 83.4812 65.9076 79.9617 65.3559 75.5979C64.8043 71.234 64.5284 67.6697 64.7372 67.6473C64.9534 67.6174 65.5721 71.1369 66.1237 75.5007C66.6754 79.8646 66.9512 83.4289 66.7425 83.4513Z" fill="black"/>
<path d="M90.6648 79.506C90.6723 79.6181 89.159 79.7675 86.7213 79.9768C84.2836 80.186 80.9215 80.4849 77.2164 80.8809C73.5114 81.2844 70.1642 81.7103 67.734 82.0167C65.3112 82.3231 63.8053 82.5024 63.7829 82.3978C63.768 82.2932 65.2366 81.927 67.652 81.4787C70.0599 81.0304 73.4145 80.5148 77.1344 80.1113C80.8544 79.7152 84.2388 79.506 86.6914 79.4313C89.1441 79.3565 90.6648 79.4014 90.6648 79.506Z" fill="black"/>
<path opacity="0.1" d="M102.928 163.538C102.928 163.538 106.171 178.207 102.928 185.545L101.221 188.444L80.0493 184.64C80.0493 184.64 86.766 170.331 85.864 164.54L102.928 163.538Z" fill="#098AFD"/>
<path d="M82.2261 160.908C82.2261 160.908 81.9502 180.688 78.3645 182.212L99.7522 185.119C99.7522 185.119 104.307 174.882 102.928 163.538L82.2261 160.908Z" fill="#BBF9D1"/>
<path d="M100.356 170.563C100.319 170.772 96.7256 170.271 92.3273 169.449C87.9364 168.62 84.4029 167.783 84.4401 167.566C84.4774 167.357 88.0706 167.858 92.4689 168.68C96.8672 169.509 100.393 170.346 100.356 170.563Z" fill="black"/>
<path d="M99.879 173.693C99.8417 173.903 96.2485 173.402 91.8502 172.58C87.4593 171.751 83.9258 170.914 83.963 170.697C84.0003 170.488 87.5935 170.988 91.9918 171.81C96.3901 172.64 99.9162 173.484 99.879 173.693Z" fill="black"/>
<path d="M99.8342 177.019C99.7969 177.228 96.2037 176.727 91.8054 175.905C87.4146 175.076 83.881 174.239 83.9183 174.022C83.9556 173.813 87.5488 174.314 91.9471 175.136C96.3454 175.965 99.8715 176.802 99.8342 177.019Z" fill="black"/>
<path d="M172.362 145.614C172.354 145.465 173.152 145.323 174.531 145.009C175.918 144.702 177.886 144.097 180.122 142.961C181.24 142.401 182.403 141.661 183.588 140.802C184.737 139.89 185.937 138.874 187.01 137.626C189.202 135.183 191.043 131.977 191.908 128.315C192.713 124.639 192.437 120.948 191.52 117.794C191.088 116.203 190.447 114.768 189.806 113.445C189.112 112.153 188.389 110.98 187.622 109.993C186.093 108.006 184.58 106.601 183.469 105.727C182.358 104.845 181.702 104.367 181.777 104.24C181.829 104.135 182.612 104.381 183.902 105.106C185.191 105.824 186.928 107.131 188.688 109.134C189.575 110.128 190.417 111.331 191.222 112.683C191.975 114.058 192.721 115.583 193.235 117.286C194.323 120.664 194.696 124.699 193.802 128.764C192.847 132.806 190.767 136.288 188.33 138.859C187.13 140.167 185.795 141.213 184.528 142.132C183.216 142.999 181.941 143.716 180.711 144.232C178.258 145.27 176.126 145.696 174.658 145.778C173.174 145.846 172.362 145.734 172.362 145.614Z" fill="#CABAFA"/>
<path d="M192.706 104.135C192.639 104.665 187.726 104.516 181.725 103.799C181.233 103.739 180.748 103.679 180.286 103.619L181.359 102.573C181.784 107.938 181.755 112.093 181.27 112.138C180.778 112.183 179.995 108.103 179.444 102.745L179.324 101.564L180.517 101.699C180.979 101.751 181.464 101.803 181.956 101.863C187.957 102.581 192.765 103.597 192.706 104.135Z" fill="#CABAFA"/>
<path d="M118.814 168.627C122.504 177.87 127.484 186.591 133.56 194.459L140.507 190.372L125.889 165.28L118.814 168.627Z" fill="#CABAFA"/>
<path d="M131.681 165.272L145.01 188.436L152.405 185.021L138.867 163.404L131.681 165.272Z" fill="#CABAFA"/>
<path d="M145.592 165.272L156.371 182.698L162.678 178.573L151.205 163.404L145.592 165.272Z" fill="#CABAFA"/>
<path d="M159.279 167.566L165.995 175.987L171.266 173.051L164.281 164.562L159.279 167.566Z" fill="#CABAFA"/>
<path d="M177.848 177.355C178.117 177.811 169.223 183.609 157.735 189.864C146.248 196.133 136.556 200.459 136.325 199.981C136.079 199.488 145.36 194.399 156.811 188.152C168.261 181.92 177.572 176.884 177.848 177.355Z" fill="#CABAFA"/>
<path d="M166.256 190.738C166.48 191.224 161.135 194.205 154.306 197.388C147.478 200.579 141.767 202.761 141.536 202.275C141.313 201.79 146.658 198.808 153.486 195.625C160.315 192.442 166.033 190.252 166.256 190.738Z" fill="#CABAFA"/>
<path d="M282.424 159.578C282.483 160.116 274.112 161.431 263.742 162.53C253.365 163.628 244.911 164.076 244.852 163.546C244.792 163.015 253.156 161.693 263.533 160.594C273.91 159.503 282.372 159.048 282.424 159.578Z" fill="#CABAFA"/>
<path d="M263.369 165.877C263.436 166.408 259.977 167.29 255.654 167.835C251.322 168.381 247.759 168.395 247.692 167.857C247.625 167.327 251.084 166.453 255.415 165.9C259.739 165.354 263.302 165.339 263.369 165.877Z" fill="#CABAFA"/>
<path d="M25.4506 20.1679C25.4357 20.1455 25.6071 20.011 25.95 19.7644C26.3004 19.5402 26.8372 19.2264 27.5901 18.9499C28.3356 18.6734 29.2972 18.4343 30.4378 18.3969C31.5709 18.367 32.8979 18.4941 34.2397 19.047C35.5816 19.5701 36.9533 20.534 37.9224 21.9613C38.8915 23.3735 39.5103 25.1893 39.4879 27.1321C39.4804 29.06 38.7499 31.1523 37.2217 32.6467C35.7307 34.1636 33.6657 35.0902 31.5038 35.4862C29.3345 35.8673 27.1428 35.7702 25.1375 35.1724C23.1396 34.5896 21.3355 33.3566 20.3292 31.6604C19.3079 29.9866 19.0097 28.0811 19.1737 26.3849C19.3377 24.6737 19.9862 23.1494 20.8435 21.9911C21.7083 20.8255 22.7296 19.9886 23.6987 19.3908C24.6678 18.793 25.5848 18.4418 26.3452 18.2101C27.1055 17.9785 27.7243 17.9038 28.1343 17.8515C28.5518 17.8216 28.768 17.8216 28.768 17.844C28.7754 17.9187 27.9032 17.9785 26.4346 18.5016C25.7115 18.7706 24.8318 19.1516 23.9298 19.7569C23.0203 20.3622 22.0736 21.1916 21.2908 22.3125C20.5081 23.4258 19.9415 24.8456 19.8148 26.4372C19.688 28.0139 19.9937 29.7774 20.9404 31.2793C21.8648 32.7887 23.49 33.9021 25.3611 34.4401C27.2323 34.9856 29.3271 35.0753 31.3697 34.7166C33.4123 34.3504 35.3281 33.4836 36.6849 32.1087C38.0789 30.7562 38.7424 28.9031 38.7722 27.1247C38.8095 25.3388 38.2653 23.65 37.3931 22.3274C36.5209 20.9973 35.2834 20.0857 34.031 19.5626C32.7861 19.0097 31.5262 18.8528 30.4453 18.8378C29.3569 18.8378 28.4176 19.0171 27.6796 19.2413C26.1961 19.6897 25.4953 20.2426 25.4506 20.1679Z" fill="black"/>
<path d="M36.342 26.5941C36.3718 26.6988 35.6263 27.0051 34.3963 27.4236C33.785 27.6328 33.047 27.8719 32.2269 28.1185C31.8095 28.2455 31.3845 28.3726 30.9373 28.5071C30.7062 28.5669 30.5123 28.6416 30.2067 28.7014C30.0576 28.7238 29.8787 28.7387 29.6774 28.6864C29.4761 28.6341 29.2823 28.4772 29.1779 28.3277C28.9692 28.0064 28.9319 27.7598 28.8574 27.5357C28.7903 27.304 28.7232 27.0724 28.6561 26.8482C28.5294 26.3924 28.4101 25.9515 28.3132 25.5331C28.1119 24.6887 27.9628 23.9265 27.851 23.2764C27.6423 21.9837 27.6124 21.1692 27.7168 21.1543C27.8286 21.1393 28.0448 21.909 28.3877 23.1643C28.5741 23.8294 28.7828 24.5617 28.999 25.3463C29.1258 25.7572 29.2525 26.1906 29.3867 26.6315C29.4538 26.8557 29.5283 27.0799 29.5954 27.304C29.67 27.5357 29.737 27.7823 29.8116 27.8719C29.8787 27.9541 29.8861 27.9616 30.0874 27.9392C30.2589 27.9093 30.5198 27.8271 30.736 27.7748C31.1833 27.6552 31.6156 27.5431 32.0406 27.4311C32.868 27.2218 33.621 27.035 34.2546 26.893C35.5145 26.6091 36.3121 26.4895 36.342 26.5941Z" fill="black"/>
<path d="M288.589 69.9413C288.678 70.1356 281.589 73.6626 272.762 77.8172C263.928 81.9719 256.69 85.1775 256.6 84.9832C256.511 84.7889 263.593 81.262 272.434 77.1074C281.261 72.9602 288.499 69.7471 288.589 69.9413Z" fill="black"/>
<path d="M290.035 75.03C290.072 75.1421 288.291 75.7921 285.443 76.8981C282.595 78.004 278.689 79.603 274.477 81.5982C270.265 83.5933 266.553 85.6034 263.891 87.1053C261.23 88.6073 259.597 89.5712 259.538 89.474C259.508 89.4292 259.881 89.1303 260.581 88.6297C261.275 88.129 262.311 87.4416 263.615 86.6271C266.217 84.9981 269.915 82.8984 274.149 80.8883C278.383 78.8857 282.349 77.3539 285.257 76.375C286.71 75.8818 287.896 75.5157 288.723 75.299C289.551 75.0748 290.02 74.9777 290.035 75.03Z" fill="black"/>
<path d="M275.148 87.6807C275.252 87.8675 272.576 89.5637 269.177 91.4692C265.77 93.3746 262.93 94.7645 262.825 94.5777C262.721 94.3909 265.397 92.6947 268.796 90.7892C272.196 88.8912 275.044 87.4939 275.148 87.6807Z" fill="black"/>
<path d="M195.635 188.668L195.978 206.602H223.464L224.411 188.436L195.635 188.668Z" fill="#CABAFA"/>
<path d="M222.592 179.828C222.681 179.888 221.787 181.502 220.266 184.073C218.745 186.643 216.598 190.17 214.183 194.033C212.371 196.932 210.672 199.608 209.248 201.819L209.039 202.148L208.763 201.894C207.108 200.355 206.154 198.711 205.64 197.538C205.125 196.35 205.006 195.625 205.058 195.61C205.133 195.587 205.371 196.267 205.968 197.381C206.564 198.479 207.563 200.004 209.188 201.423L208.704 201.491C210.06 199.234 211.723 196.529 213.527 193.637C215.942 189.774 218.164 186.292 219.804 183.796C221.436 181.285 222.502 179.768 222.592 179.828Z" fill="black"/>
<path opacity="0.05" d="M195.054 230.864H195.039L190.35 202.073L149.52 203.897V207.491C149.52 207.491 153.225 207.887 153.717 209.598C154.209 211.309 149.52 210.39 149.52 210.39L150.206 213.289C154.015 212.632 154.261 214.209 154.261 214.209C154.768 216.846 150.34 216.712 150.34 216.712L150.474 220.403C151.004 219.088 154.813 219.873 154.791 221.546C154.768 223.213 151.13 222.906 151.13 222.906L151.526 226.067C152.182 224.356 155.596 225.148 155.313 227.121C155.022 229.093 151.66 228.174 151.66 228.174L152.055 231.201C153.583 230.566 155.104 231.044 154.821 232.628L153.464 232.688V233.644C152.815 233.554 152.189 233.181 152.189 233.181L152.934 236.207L153.464 236.147V236.282C153.464 236.282 157.243 236.678 157.743 238.389C158.242 240.1 153.464 239.181 153.464 239.181L154.165 242.08C158.048 241.423 158.294 243 158.294 243C158.809 245.637 154.299 245.503 154.299 245.503L154.433 249.194C154.97 247.879 158.854 248.664 158.831 250.337C158.809 252.004 155.104 251.697 155.104 251.697L155.506 254.858C156.177 253.147 159.659 253.939 159.361 255.912C159.07 257.884 155.641 256.965 155.641 256.965L156.043 259.992C157.646 259.334 159.256 259.857 158.831 261.568C158.406 263.28 156.177 261.964 156.177 261.964L156.938 264.991L199.937 260.201L195.054 230.864Z" fill="#098AFD"/>
<path d="M197.38 227.592H197.365L192.676 198.801L151.846 200.624V204.218C151.846 204.218 155.551 204.614 156.043 206.325C156.535 208.036 151.846 207.117 151.846 207.117L152.532 210.017C156.341 209.359 156.587 210.936 156.587 210.936C157.094 213.573 152.666 213.439 152.666 213.439L152.8 217.13C153.33 215.815 157.139 216.6 157.117 218.274C157.094 219.94 153.456 219.633 153.456 219.633L153.851 222.794C154.507 221.083 157.922 221.875 157.638 223.848C157.348 225.821 153.986 224.902 153.986 224.902L154.381 227.928C155.909 227.293 157.43 227.771 157.146 229.355L155.79 229.415V230.371C155.141 230.282 154.515 229.908 154.515 229.908L155.26 232.934L155.79 232.875V233.009C155.79 233.009 159.569 233.405 160.069 235.116C160.568 236.827 155.79 235.908 155.79 235.908L156.49 238.808C160.374 238.15 160.62 239.727 160.62 239.727C161.135 242.357 156.625 242.23 156.625 242.23L156.759 245.921C157.296 244.606 161.179 245.398 161.157 247.065C161.135 248.731 157.43 248.425 157.43 248.425L157.832 251.585C158.503 249.874 161.985 250.666 161.686 252.639C161.396 254.612 157.966 253.693 157.966 253.693L158.369 256.719C159.972 256.061 161.582 256.584 161.157 258.303C160.732 260.014 158.503 258.699 158.503 258.699L159.264 261.725L202.263 256.936L197.38 227.592Z" fill="#C1E2FF"/>
<path d="M166.569 261.15C166.517 261.157 166.346 260.313 166.077 258.781C165.816 257.212 165.451 255 165.004 252.295C164.124 246.81 162.916 239.234 161.671 230.85C160.427 222.466 159.435 214.851 158.839 209.322C158.54 206.557 158.324 204.323 158.205 202.768C158.086 201.222 158.048 200.362 158.101 200.355C158.153 200.347 158.294 201.199 158.503 202.738C158.712 204.315 159.01 206.534 159.375 209.254C160.106 214.754 161.187 222.346 162.432 230.73C163.669 239.106 164.795 246.698 165.533 252.206C165.906 254.955 166.189 257.19 166.368 258.729C166.554 260.283 166.621 261.142 166.569 261.15Z" fill="#F191A5"/>
<path opacity="0.41" d="M164.944 197.067L165.943 202.761L185.452 201.184L184.349 196.536L164.944 197.067Z" fill="#AB9DFC"/>
<path d="M190 209.763C190.015 209.867 188.583 210.211 186.227 210.607C183.879 211.01 180.614 211.451 176.984 211.75C173.353 212.049 170.058 212.146 167.68 212.139C165.294 212.131 163.826 212.019 163.826 211.922C163.826 211.81 165.295 211.72 167.665 211.593C170.036 211.466 173.308 211.279 176.924 210.981C180.532 210.682 183.79 210.33 186.153 210.069C188.516 209.807 189.985 209.65 190 209.763Z" fill="black"/>
<path d="M182.918 213.85C182.97 214.044 178.899 215.307 173.703 215.972C168.508 216.659 164.251 216.48 164.251 216.278C164.251 216.047 168.463 215.875 173.599 215.202C178.743 214.545 182.865 213.626 182.918 213.85Z" fill="black"/>
<path d="M191.274 219.342C191.304 219.551 185.765 220.575 178.899 221.629C172.034 222.675 166.435 223.355 166.405 223.145C166.375 222.936 171.914 221.913 178.78 220.859C185.646 219.813 191.237 219.133 191.274 219.342Z" fill="black"/>
<path d="M192.139 223.504C192.154 223.609 190.79 223.952 188.561 224.393C186.332 224.834 183.231 225.365 179.794 225.843C176.357 226.321 173.234 226.657 170.968 226.844C168.701 227.031 167.292 227.076 167.285 226.964C167.277 226.852 168.664 226.62 170.908 226.291C173.234 225.97 176.298 225.537 179.69 225.066C183.082 224.595 186.145 224.169 188.471 223.84C190.723 223.549 192.124 223.392 192.139 223.504Z" fill="black"/>
<path d="M178.407 229.93C178.437 230.14 176.111 230.663 173.211 231.096C170.312 231.529 167.933 231.701 167.904 231.492C167.874 231.283 170.2 230.76 173.1 230.326C176 229.9 178.378 229.721 178.407 229.93Z" fill="black"/>
<path d="M196.001 232.725C196.016 232.837 194.465 233.121 191.96 233.547C189.388 233.988 185.967 234.571 182.18 235.213C178.4 235.901 174.986 236.521 172.414 236.984C169.916 237.44 168.358 237.694 168.336 237.59C168.314 237.485 169.827 237.044 172.302 236.446C174.777 235.849 178.221 235.124 182.045 234.451C185.87 233.779 189.351 233.293 191.886 233.009C194.413 232.71 195.986 232.62 196.001 232.725Z" fill="black"/>
<path d="M193.869 237.53C193.891 237.747 188.434 238.524 181.688 239.263C174.934 240.011 169.447 240.437 169.417 240.227C169.395 240.011 174.844 239.234 181.598 238.494C188.352 237.747 193.839 237.313 193.869 237.53Z" fill="black"/>
<path d="M179.488 242.88C179.511 243.097 177.513 243.47 175.023 243.717C172.533 243.963 170.498 243.993 170.483 243.777C170.461 243.56 172.459 243.186 174.948 242.94C177.431 242.693 179.466 242.671 179.488 242.88Z" fill="black"/>
</svg>
