<svg width="16" height="16" viewBox="0 0 16 16" fill="none" xmlns="http://www.w3.org/2000/svg">
<path d="M5.08068 3.32124C5.36067 2.13472 6.44949 1.25 7.75 1.25C9.05051 1.25 10.1393 2.13472 10.4193 3.32124L10.5363 3.34504C12.3252 3.70916 13.7499 5.02873 14.2161 6.75354C14.5946 8.15367 14.5946 9.62569 14.2161 11.0258C13.7499 12.7506 12.3252 14.0702 10.5363 14.4343L10.1945 14.5039C8.58216 14.832 6.91785 14.832 5.30554 14.5039L4.9637 14.4343C3.17476 14.0702 1.75015 12.7506 1.28388 11.0258C0.905375 9.62569 0.905375 8.15366 1.28388 6.75354C1.75015 5.02873 3.17476 3.70916 4.9637 3.34505L5.08068 3.32124Z" stroke="#FD096F" stroke-width="1.5" stroke-linejoin="round"/>
</svg>
