<svg width="32" height="32" viewBox="0 0 32 32" fill="none" xmlns="http://www.w3.org/2000/svg">
<path d="M22.1201 17.4119V22.1173H26.8241V26.8213H31.5295V31.5295H26.8241V26.8241H22.1201V31.5295H17.4119V26.8241H22.1173V22.1187H17.4119V17.4119H22.1187H22.1201ZM11.0589 17.4119C11.995 17.4119 12.8927 17.7837 13.5546 18.4456C14.2165 19.1075 14.5883 20.0052 14.5883 20.9413V28.0001C14.5883 28.9362 14.2165 29.8339 13.5546 30.4958C12.8927 31.1577 11.995 31.5295 11.0589 31.5295H4.00011C3.06406 31.5295 2.16634 31.1577 1.50444 30.4958C0.842551 29.8339 0.470703 28.9362 0.470703 28.0001V20.9413C0.470703 20.0052 0.842551 19.1075 1.50444 18.4456C2.16634 17.7837 3.06406 17.4119 4.00011 17.4119H11.0589ZM11.0589 20.2354H4.00011C3.8129 20.2354 3.63336 20.3098 3.50098 20.4422C3.3686 20.5745 3.29423 20.7541 3.29423 20.9413V28.0001C3.29423 28.1873 3.3686 28.3669 3.50098 28.4992C3.63336 28.6316 3.8129 28.706 4.00011 28.706H11.0589C11.2461 28.706 11.4257 28.6316 11.5581 28.4992C11.6905 28.3669 11.7648 28.1873 11.7648 28.0001V20.9413C11.7648 20.7541 11.6905 20.5745 11.5581 20.4422C11.4257 20.3098 11.2461 20.2354 11.0589 20.2354ZM10.0001 22.0001V26.9413H5.05894V22.0001H10.0001ZM31.5295 17.4119V22.1173H26.8241V17.4119H31.5295ZM11.0589 0.470703C11.995 0.470703 12.8927 0.842551 13.5546 1.50444C14.2165 2.16634 14.5883 3.06406 14.5883 4.00011V11.0589C14.5883 11.995 14.2165 12.8927 13.5546 13.5546C12.8927 14.2165 11.995 14.5883 11.0589 14.5883H4.00011C3.06406 14.5883 2.16634 14.2165 1.50444 13.5546C0.842551 12.8927 0.470703 11.995 0.470703 11.0589V4.00011C0.470703 3.06406 0.842551 2.16634 1.50444 1.50444C2.16634 0.842551 3.06406 0.470703 4.00011 0.470703H11.0589ZM28.0001 0.470703C28.9362 0.470703 29.8339 0.842551 30.4958 1.50444C31.1577 2.16634 31.5295 3.06406 31.5295 4.00011V11.0589C31.5295 11.995 31.1577 12.8927 30.4958 13.5546C29.8339 14.2165 28.9362 14.5883 28.0001 14.5883H20.9413C20.0052 14.5883 19.1075 14.2165 18.4456 13.5546C17.7837 12.8927 17.4119 11.995 17.4119 11.0589V4.00011C17.4119 3.06406 17.7837 2.16634 18.4456 1.50444C19.1075 0.842551 20.0052 0.470703 20.9413 0.470703H28.0001ZM11.0589 3.29423H4.00011C3.8129 3.29423 3.63336 3.3686 3.50098 3.50098C3.3686 3.63336 3.29423 3.8129 3.29423 4.00011V11.0589C3.29423 11.2461 3.3686 11.4257 3.50098 11.5581C3.63336 11.6905 3.8129 11.7648 4.00011 11.7648H11.0589C11.2461 11.7648 11.4257 11.6905 11.5581 11.5581C11.6905 11.4257 11.7648 11.2461 11.7648 11.0589V4.00011C11.7648 3.8129 11.6905 3.63336 11.5581 3.50098C11.4257 3.3686 11.2461 3.29423 11.0589 3.29423ZM28.0001 3.29423H20.9413C20.7541 3.29423 20.5745 3.3686 20.4422 3.50098C20.3098 3.63336 20.2354 3.8129 20.2354 4.00011V11.0589C20.2354 11.2461 20.3098 11.4257 20.4422 11.5581C20.5745 11.6905 20.7541 11.7648 20.9413 11.7648H28.0001C28.1873 11.7648 28.3669 11.6905 28.4992 11.5581C28.6316 11.4257 28.706 11.2461 28.706 11.0589V4.00011C28.706 3.8129 28.6316 3.63336 28.4992 3.50098C28.3669 3.3686 28.1873 3.29423 28.0001 3.29423ZM26.9413 5.05894V10.0001H22.0001V5.05894H26.9413ZM9.99588 5.06176V9.99588H5.06317V5.06176H9.99588Z" fill="black"/>
</svg>
