<svg width="23" height="20" viewBox="0 0 23 20" fill="none" xmlns="http://www.w3.org/2000/svg">
<path d="M22.843 4.14013C22.7455 4.04266 22.6176 3.99259 22.4873 4.00089C22.357 4.00919 22.235 4.0752 22.1479 4.18443L16.4197 11.3831L13.8563 8.28766C13.8142 8.23239 13.7629 8.18697 13.7052 8.154C13.6475 8.12102 13.5845 8.10114 13.52 8.09548C13.4555 8.08983 13.3905 8.09851 13.329 8.12103C13.2674 8.14355 13.2104 8.17947 13.1612 8.22674C13.113 8.27599 13.074 8.33548 13.0464 8.40178C13.0188 8.46807 13.0032 8.53985 13.0004 8.61297C12.9977 8.68609 13.0079 8.7591 13.0304 8.82777C13.0529 8.89644 13.0873 8.95942 13.1317 9.01306L16.4296 13L22.8824 4.90429C22.9647 4.79572 23.0065 4.65567 22.9992 4.51332C22.9918 4.37098 22.9359 4.2373 22.843 4.14013Z" fill="black"/>
<path d="M1 17.1115C1 14.6984 2.69732 12.643 5.00404 12.2627L5.21182 12.2284C7.05892 11.9239 8.94108 11.9239 10.7882 12.2284L10.996 12.2627C13.3027 12.643 15 14.6984 15 17.1115C15 18.1545 14.1815 19 13.1719 19H2.82813C1.81848 19 1 18.1545 1 17.1115Z" stroke="black" stroke-width="1.5"/>
<path d="M12.0834 4.9375C12.0834 7.11212 10.2552 8.875 8.00002 8.875C5.74486 8.875 3.91669 7.11212 3.91669 4.9375C3.91669 2.76288 5.74486 1 8.00002 1C10.2552 1 12.0834 2.76288 12.0834 4.9375Z" stroke="black" stroke-width="1.5"/>
</svg>
