<svg width="115" height="118" viewBox="0 0 115 118" fill="none" xmlns="http://www.w3.org/2000/svg">
<path d="M66.1588 0.660432C34.7682 -4.10277 5.44483 17.386 0.662915 48.6499C-3.09709 73.2429 9.44276 96.5578 30.2437 107.708C30.9224 113.501 35.8642 117.996 41.8631 117.996C48.3261 117.996 53.5643 112.778 53.5643 106.341C53.5643 99.9029 48.3261 94.6851 41.8631 94.6851C39.203 94.6851 36.7535 95.5709 34.7877 97.059C18.1953 87.8317 8.25313 69.0314 11.2838 49.2171C15.1842 23.7072 39.1094 6.17347 64.7195 10.0625C90.3297 13.9477 107.932 37.7792 104.028 63.2892C100.974 83.2589 85.6492 98.3255 66.8531 102.071C67.3211 102.028 67.797 102.032 68.2806 102.106C71.4556 102.588 73.6398 105.544 73.1561 108.707C72.8051 110.995 71.1552 112.759 69.0685 113.381C91.9718 108.691 110.608 90.2677 114.333 65.8961C119.119 34.6322 97.5494 5.42363 66.1588 0.660432Z" fill="white"/>
<path d="M73.1562 108.711C73.6398 105.548 71.4595 102.592 68.2806 102.11C67.797 102.036 67.3211 102.032 66.8531 102.075C64.2593 102.32 62.0634 104.282 61.6538 106.962C61.1702 110.125 63.3505 113.081 66.5294 113.563C67.4069 113.695 68.2689 113.621 69.0685 113.381C71.1553 112.759 72.8051 110.995 73.1562 108.711Z" fill="#098AFD"/>
</svg>
