<svg width="10" height="16" viewBox="0 0 10 16" fill="none" xmlns="http://www.w3.org/2000/svg">
<path d="M4.4837 7.73329C4.4837 8.1756 4.35221 8.60797 4.10588 8.97573C3.85954 9.3435 3.50941 9.63013 3.09977 9.7994C2.69012 9.96866 2.23936 10.0129 1.80449 9.92666C1.36961 9.84037 0.970151 9.62738 0.656623 9.31462C0.343095 9.00186 0.12958 8.60338 0.0430775 8.16958C-0.0434247 7.73577 0.000971365 7.28612 0.170652 6.87748C0.340332 6.46884 0.627675 6.11957 0.996345 5.87384C1.36501 5.62811 1.79845 5.49695 2.24185 5.49695C2.53625 5.49695 2.82777 5.55479 3.09977 5.66718C3.37176 5.77957 3.6189 5.94429 3.82708 6.15196C4.03525 6.35962 4.20038 6.60615 4.31305 6.87748C4.42571 7.1488 4.4837 7.43961 4.4837 7.73329ZM7.54076 9.96963C7.98416 9.96963 8.4176 9.83847 8.78627 9.59274C9.15494 9.34701 9.44228 8.99774 9.61196 8.5891C9.78164 8.18046 9.82604 7.73081 9.73953 7.297C9.65303 6.86319 9.43952 6.46472 9.12599 6.15196C8.81246 5.8392 8.413 5.62621 7.97812 5.53992C7.54325 5.45363 7.09249 5.49792 6.68284 5.66718C6.2732 5.83644 5.92307 6.12308 5.67673 6.49085C5.4304 6.85861 5.29891 7.29098 5.29891 7.73329C5.29891 8.3264 5.53511 8.89523 5.95554 9.31462C6.37596 9.73402 6.94619 9.96963 7.54076 9.96963ZM2.24185 10.7828C1.79845 10.7828 1.36501 10.914 0.996345 11.1597C0.627675 11.4055 0.340332 11.7547 0.170652 12.1634C0.000971365 12.572 -0.0434247 13.0217 0.0430775 13.4555C0.12958 13.8893 0.343095 14.2878 0.656623 14.6005C0.970151 14.9133 1.36961 15.1263 1.80449 15.2126C2.23936 15.2988 2.69012 15.2546 3.09977 15.0853C3.50941 14.916 3.85954 14.6294 4.10588 14.2616C4.35221 13.8939 4.4837 13.4615 4.4837 13.0192C4.4837 12.7255 4.42571 12.4347 4.31305 12.1634C4.20038 11.892 4.03525 11.6455 3.82708 11.4379C3.6189 11.2302 3.37176 11.0655 3.09977 10.9531C2.82777 10.8407 2.53625 10.7828 2.24185 10.7828ZM7.54076 10.7828C7.09737 10.7828 6.66393 10.914 6.29526 11.1597C5.92659 11.4055 5.63925 11.7547 5.46957 12.1634C5.29989 12.572 5.25549 13.0217 5.34199 13.4555C5.42849 13.8893 5.64201 14.2878 5.95554 14.6005C6.26906 14.9133 6.66852 15.1263 7.1034 15.2126C7.53828 15.2988 7.98904 15.2546 8.39868 15.0853C8.80832 14.916 9.15845 14.6294 9.40479 14.2616C9.65113 13.8939 9.78261 13.4615 9.78261 13.0192C9.78261 12.4261 9.54642 11.8572 9.12599 11.4379C8.70556 11.0185 8.13534 10.7828 7.54076 10.7828Z" fill="#D9D9D9"/>
<path d="M4.4837 2.5287C4.4837 2.97101 4.35221 3.40338 4.10588 3.77114C3.85954 4.13891 3.50941 4.42554 3.09977 4.59481C2.69012 4.76407 2.23936 4.80836 1.80449 4.72207C1.36961 4.63578 0.970151 4.42279 0.656623 4.11003C0.343095 3.79727 0.12958 3.39879 0.0430775 2.96499C-0.0434247 2.53118 0.000971365 2.08153 0.170652 1.67289C0.340332 1.26425 0.627675 0.914983 0.996345 0.669251C1.36501 0.423518 1.79845 0.292359 2.24185 0.292359C2.53625 0.292359 2.82777 0.350204 3.09977 0.462591C3.37176 0.574977 3.6189 0.739705 3.82708 0.947368C4.03525 1.15503 4.20038 1.40156 4.31305 1.67289C4.42571 1.94421 4.4837 2.23502 4.4837 2.5287ZM7.54076 4.76504C7.98416 4.76504 8.4176 4.63388 8.78627 4.38815C9.15494 4.14242 9.44228 3.79315 9.61196 3.38451C9.78164 2.97587 9.82604 2.52622 9.73953 2.09241C9.65303 1.6586 9.43952 1.26013 9.12599 0.947368C8.81246 0.63461 8.413 0.42162 7.97812 0.33533C7.54325 0.24904 7.09249 0.293327 6.68284 0.462591C6.2732 0.631854 5.92307 0.918491 5.67673 1.28626C5.4304 1.65402 5.29891 2.08639 5.29891 2.5287C5.29891 3.12181 5.53511 3.69064 5.95554 4.11003C6.37596 4.52943 6.94619 4.76504 7.54076 4.76504ZM2.24185 5.57825C1.79845 5.57825 1.36501 5.70941 0.996345 5.95515C0.627675 6.20088 0.340332 6.55015 0.170652 6.95878C0.000971365 7.36742 -0.0434247 7.81707 0.0430775 8.25088C0.12958 8.68469 0.343095 9.08317 0.656623 9.39592C0.970151 9.70868 1.36961 9.92167 1.80449 10.008C2.23936 10.0943 2.69012 10.05 3.09977 9.8807C3.50941 9.71144 3.85954 9.4248 4.10588 9.05704C4.35221 8.68927 4.4837 8.2569 4.4837 7.81459C4.4837 7.52091 4.42571 7.23011 4.31305 6.95878C4.20038 6.68746 4.03525 6.44093 3.82708 6.23326C3.6189 6.0256 3.37176 5.86087 3.09977 5.74849C2.82777 5.6361 2.53625 5.57825 2.24185 5.57825ZM7.54076 5.57825C7.09737 5.57825 6.66393 5.70941 6.29526 5.95515C5.92659 6.20088 5.63925 6.55015 5.46957 6.95878C5.29989 7.36742 5.25549 7.81707 5.34199 8.25088C5.42849 8.68469 5.64201 9.08317 5.95554 9.39592C6.26906 9.70868 6.66852 9.92167 7.1034 10.008C7.53828 10.0943 7.98904 10.05 8.39868 9.8807C8.80832 9.71144 9.15845 9.4248 9.40479 9.05704C9.65113 8.68927 9.78261 8.2569 9.78261 7.81459C9.78261 7.22148 9.54642 6.65266 9.12599 6.23326C8.70556 5.81387 8.13534 5.57825 7.54076 5.57825Z" fill="#D9D9D9"/>
</svg>
