<svg width="21" height="15" viewBox="0 0 21 15" fill="none" xmlns="http://www.w3.org/2000/svg">
<path fill-rule="evenodd" clip-rule="evenodd" d="M1.67542 0.481079C1.48289 0.481079 1.29824 0.557564 1.16209 0.693708C1.02595 0.829853 0.949463 1.0145 0.949463 1.20704V2.65896C0.949463 2.8515 1.02595 3.03615 1.16209 3.1723C1.29824 3.30844 1.48289 3.38493 1.67542 3.38493H3.12735C3.31988 3.38493 3.50454 3.30844 3.64068 3.1723C3.77682 3.03615 3.85331 2.8515 3.85331 2.65896V1.20704C3.85331 1.0145 3.77682 0.829853 3.64068 0.693708C3.50454 0.557564 3.31988 0.481079 3.12735 0.481079H1.67542ZM3.12735 1.20704H1.67542V2.65896H3.12735V1.20704Z" fill="black"/>
<path d="M6.03125 1.93318C6.03125 1.74064 6.10774 1.55599 6.24388 1.41984C6.38002 1.2837 6.56467 1.20721 6.75721 1.20721H19.8245C20.0171 1.20721 20.2017 1.2837 20.3379 1.41984C20.474 1.55599 20.5505 1.74064 20.5505 1.93318C20.5505 2.12571 20.474 2.31036 20.3379 2.44651C20.2017 2.58265 20.0171 2.65914 19.8245 2.65914H6.75721C6.56467 2.65914 6.38002 2.58265 6.24388 2.44651C6.10774 2.31036 6.03125 2.12571 6.03125 1.93318ZM6.75721 7.01491C6.56467 7.01491 6.38002 7.09139 6.24388 7.22754C6.10774 7.36368 6.03125 7.54833 6.03125 7.74087C6.03125 7.93341 6.10774 8.11806 6.24388 8.2542C6.38002 8.39035 6.56467 8.46683 6.75721 8.46683H19.8245C20.0171 8.46683 20.2017 8.39035 20.3379 8.2542C20.474 8.11806 20.5505 7.93341 20.5505 7.74087C20.5505 7.54833 20.474 7.36368 20.3379 7.22754C20.2017 7.09139 20.0171 7.01491 19.8245 7.01491H6.75721ZM6.75721 12.8226C6.56467 12.8226 6.38002 12.8991 6.24388 13.0352C6.10774 13.1714 6.03125 13.356 6.03125 13.5486C6.03125 13.7411 6.10774 13.9258 6.24388 14.0619C6.38002 14.198 6.56467 14.2745 6.75721 14.2745H19.8245C20.0171 14.2745 20.2017 14.198 20.3379 14.0619C20.474 13.9258 20.5505 13.7411 20.5505 13.5486C20.5505 13.356 20.474 13.1714 20.3379 13.0352C20.2017 12.8991 20.0171 12.8226 19.8245 12.8226H6.75721Z" fill="black"/>
<path fill-rule="evenodd" clip-rule="evenodd" d="M0.949463 7.01447C0.949463 6.82194 1.02595 6.63729 1.16209 6.50114C1.29824 6.365 1.48289 6.28851 1.67542 6.28851H3.12735C3.31988 6.28851 3.50454 6.365 3.64068 6.50114C3.77682 6.63729 3.85331 6.82194 3.85331 7.01447V8.4664C3.85331 8.65894 3.77682 8.84359 3.64068 8.97973C3.50454 9.11588 3.31988 9.19236 3.12735 9.19236H1.67542C1.48289 9.19236 1.29824 9.11588 1.16209 8.97973C1.02595 8.84359 0.949463 8.65894 0.949463 8.4664V7.01447ZM1.67542 7.01447H3.12735V8.4664H1.67542V7.01447ZM1.67542 12.0962C1.48289 12.0962 1.29824 12.1727 1.16209 12.3088C1.02595 12.445 0.949463 12.6296 0.949463 12.8222V14.2741C0.949463 14.4666 1.02595 14.6513 1.16209 14.7874C1.29824 14.9236 1.48289 15.0001 1.67542 15.0001H3.12735C3.31988 15.0001 3.50454 14.9236 3.64068 14.7874C3.77682 14.6513 3.85331 14.4666 3.85331 14.2741V12.8222C3.85331 12.6296 3.77682 12.445 3.64068 12.3088C3.50454 12.1727 3.31988 12.0962 3.12735 12.0962H1.67542ZM3.12735 12.8222H1.67542V14.2741H3.12735V12.8222Z" fill="black"/>
</svg>
